<svg xmlns="http://www.w3.org/2000/svg" id="Logotype" viewBox="0 0 455.7 77.3"><defs><style>      .st0 {        fill: #fff;      }    </style></defs><path class="st0" d="M286.6,14.6c.7-10.4-5-14.6-15.6-14.6s-19.3,6.4-21.2,17.2l-.5,3c-1.3,7.5.2,13.1,6.7,17.9l8,5.7c5,3.6,5.2,6.4,4.2,12.2l-.5,3c-1,5.4-3.8,8.6-8.6,8.6s-6.8-3.6-5.8-10.4l-11.8,2.1c-1.4,11.5,4.1,18.1,15.7,18.1s20-6.8,22-18l.9-4.9c1.4-7.9.4-13.5-6.9-18.9l-8.1-5.8c-3.8-2.7-5-5.7-4.2-10.5l.4-2c.8-4.5,3.7-7.4,8.1-7.4s6,2.3,5.8,6.8l11.5-2-.1-.1Z"></path><path class="st0" d="M192.3,54.9l5.7-32.6c2.6-14.4,11.4-22.3,24.5-22.3s19.2,7.9,16.6,22.3l-5.7,32.6c-2.5,14.4-11.3,22.3-24.5,22.3s-19.2-7.9-16.6-22.3ZM221.8,55.5l5.9-33.7c1.4-7.7-1.1-12-6.9-12s-9.8,4.4-11.2,12l-5.9,33.7c-1.4,7.7,1.1,12,6.9,12s9.8-4.4,11.2-12Z"></path><path class="st0" d="M123.2,59.2c-1.5,5.4-4.6,8.3-9,8.3s-7.7-4.5-6.3-12.8l5.9-33.3c1.5-8.3,5.1-11.6,10.4-11.6s6.2,2.2,6.3,6.8l11.8-2.1c.1-9.9-5.5-14.5-16-14.5s-21.5,7.6-24,22l-5.7,32.2c-2.7,15.4,3.1,23.1,15.9,23.1s20.4-6.8,22.8-20.2l-11.9,2.1h-.2Z"></path><polygon class="st0" points="455.7 1.8 415.9 1.8 414.2 11.5 428.6 11.5 417.3 75.5 428.4 75.5 439.7 11.5 454 11.5 455.7 1.8"></polygon><polygon class="st0" points="364.2 1.8 351.2 75.5 340 75.5 353 1.8 364.2 1.8"></polygon><polygon class="st0" points="93.1 1.8 80.1 75.5 69 75.5 82 1.8 93.1 1.8"></polygon><polygon class="st0" points="327.9 1.8 322 35.6 305 38.6 311.5 1.8 300.4 1.8 287.4 75.5 298.5 75.5 303.3 48.5 320.2 45.6 314.9 75.5 326 75.5 339 1.8 327.9 1.8"></polygon><polygon class="st0" points="407.3 11.5 409 1.8 378 1.8 378 1.8 365 75.5 376.2 75.5 380.9 48.5 401.4 44.9 403.1 35 382.7 38.6 387.4 11.5 407.3 11.5"></polygon><path class="st0" d="M172.2,1.8h-17.4l-13,73.7h11.1l4.8-27,6.8-1.2,5.8,28.2h10.4l-6.4-31.2c7.7-4,11.5-10.3,13.1-19.3.5-2.9.7-4.2.7-4.2,2.1-12.2-2.3-19-15.9-19h0ZM176.3,22.4l-.6,3.3c-1.2,7-3.8,10.7-8.4,11.5-4.7.8-7.9,1.4-7.9,1.4l4.8-27.1h5.6c6,0,7.9,3.1,6.5,10.9h0Z"></path><polygon class="st0" points="56.9 1.8 56.9 1.8 56.9 1.8 56.9 1.8 33 46.2 28.1 1.8 28.1 1.8 28.1 1.8 28.1 1.8 17 1.8 0 75.5 11.1 75.5 22.4 26.6 26 59.2 35.7 59.2 52.2 28.4 43.9 75.5 55 75.5 68 1.8 56.9 1.8"></polygon></svg>