<svg width="142" height="48" viewBox="0 0 142 48" fill="none" xmlns="http://www.w3.org/2000/svg">
<path d="M68.1863 35.6823L81.1297 12.6095C82.2856 14.812 82.9425 17.33 82.9425 19.9972C82.9425 28.4467 76.3764 35.3556 68.1863 35.6795V35.6823ZM52.2036 20C52.2036 17.3131 52.8718 14.7782 54.0418 12.5644H67.4955C68.0904 12.5644 68.5753 13.0601 68.5753 13.6657V15.3528C68.5753 15.9583 68.0904 16.454 67.4955 16.454H56.1534L58.4202 20.4985L66.9345 35.6795C58.7585 35.3331 52.2036 28.4354 52.2036 19.9972V20ZM78.5585 9.03253L67.5604 28.6551L62.9846 20.4985H67.4927C70.2697 20.4985 72.5308 18.189 72.5308 15.35V13.6629C72.5308 10.8266 70.2697 8.51429 67.4927 8.51429H57.1148C59.8608 5.90058 63.54 4.29799 67.5773 4.29799C71.8767 4.29799 75.7674 6.11463 78.5613 9.03535V9.02971L78.5585 9.03253ZM67.5745 0C56.7793 0 48 8.97057 48 20C48 31.0294 56.7793 40 67.5745 40C78.3696 40 87.1489 31.0294 87.1489 20C87.1489 8.97057 78.3668 0 67.5745 0Z" fill="white"/>
</svg>
