<?xml version="1.0" encoding="UTF-8"?>
<!DOCTYPE svg PUBLIC "-//W3C//DTD SVG 1.1//EN" "http://www.w3.org/Graphics/SVG/1.1/DTD/svg11.dtd">
<!-- Creator: CorelDRAW Home & Student 2018 -->
<svg xmlns="http://www.w3.org/2000/svg" xml:space="preserve" width="266px" height="70px" version="1.1" style="shape-rendering:geometricPrecision; text-rendering:geometricPrecision; image-rendering:optimizeQuality; fill-rule:evenodd; clip-rule:evenodd"
viewBox="0 0 7500 2000"
 xmlns:xlink="http://www.w3.org/1999/xlink">
 <defs>
  <style type="text/css">
   <![CDATA[
    .fil1 {fill:black}
    .fil2 {fill:black;fill-rule:nonzero}
    .fil0 {fill:black;fill-rule:nonzero}
   ]]>
  </style>
 </defs>
 <g id="Layer_x0020_1">
  <metadata id="CorelCorpID_0Corel-Layer"/>
  <path class="fil0" d="M446.99 1648.95c-22.47,-12.33 -43.48,-21.78 -63.07,-28.3 -19.59,-6.52 -42.06,-9.77 -67.42,-9.77 -34.8,0 -63.45,7.95 -85.92,23.92 -22.49,15.95 -33.71,39.5 -33.71,70.68 0,30.46 11.06,53.48 33.15,69.07 22.13,15.6 51.67,23.39 88.63,23.39 27.56,0 52.22,-5.63 73.98,-16.88 21.75,-11.24 39.87,-25.53 54.36,-42.92l0 -89.19zm3.28 190.3l0 -48.93c-16.69,16.67 -37.54,30.45 -62.55,41.32 -25,10.88 -52,16.32 -80.99,16.32 -23.21,0 -44.99,-3.09 -65.27,-9.24 -20.31,-6.18 -38.07,-15.42 -53.31,-27.75 -15.2,-12.33 -27.19,-27.38 -35.88,-45.12 -8.71,-17.77 -13.07,-37.89 -13.07,-60.38 0,-21.74 4.36,-41.32 13.07,-58.71 8.68,-17.41 20.68,-32.27 35.88,-44.6 15.24,-12.33 33.19,-21.94 53.84,-28.81 20.67,-6.91 42.96,-10.34 66.87,-10.34 29.73,0 55.31,3.43 76.7,10.34 21.38,6.87 41.87,15.02 61.43,24.45l0 -41.32c0,-43.51 -9.94,-75.59 -29.88,-96.26 -19.94,-20.65 -53.86,-30.99 -101.7,-30.99 -18.85,0 -38.97,2.16 -60.35,6.54 -21.38,4.33 -40.79,10.48 -58.18,18.48l-11.99 -52.21c21.05,-7.98 43.88,-14.31 68.54,-19.04 24.66,-4.7 47.5,-7.08 68.52,-7.08 63.81,0 110.57,15.05 140.29,45.14 29.73,30.1 44.59,75.22 44.59,135.41l0 282.76 -56.54 0 -0.02 0.02zm562.26 -228.37c0,-26.11 -3.99,-50.4 -11.97,-72.89 -7.97,-22.47 -19.4,-41.87 -34.26,-58.16 -14.84,-16.32 -32.42,-29.02 -52.73,-38.07 -20.3,-9.06 -42.79,-13.6 -67.42,-13.6 -31.18,0 -59.45,6.33 -84.83,19.04 -25.39,12.67 -46.78,29.17 -64.18,49.47l0 229.48c16.67,19.59 37.33,36.06 61.99,49.51 24.65,13.41 52.19,20.08 82.66,20.08 24.64,0 47.31,-4.51 67.95,-13.6 20.68,-9.06 38.63,-21.73 53.86,-38.05 15.21,-16.31 27.2,-35.9 35.89,-58.74 8.71,-22.81 13.04,-47.66 13.04,-74.48l0 0.01zm59.82 -1.1c0,33.36 -5.81,64.52 -17.4,93.53 -11.62,29.02 -27.56,54.21 -47.87,75.59 -20.28,21.38 -44.03,38.23 -71.23,50.56 -27.19,12.33 -56.01,18.51 -86.43,18.51 -30.46,0 -59.3,-5.78 -86.49,-17.42 -27.17,-11.6 -49.82,-26.46 -67.95,-44.57l0 53.28 -57.67 0 0 -797.18 59.82 0 0 394.77c18.11,-16.66 40.79,-30.99 67.98,-42.93 27.2,-11.98 57.11,-17.98 89.72,-17.98 31.18,0 60.01,5.81 86.46,17.4 26.46,11.62 49.51,27.75 69.07,48.42 19.57,20.67 34.8,45.3 45.67,73.95 10.88,28.65 16.32,60.01 16.32,94.07zm385.01 103.33c0,17.4 -3.43,34.25 -10.34,50.56 -6.87,16.32 -16.67,30.81 -29.36,43.51 -12.7,12.7 -28.09,22.68 -46.23,29.91 -18.11,7.24 -38.07,10.88 -59.8,10.88 -30.46,0 -58.74,-5.26 -84.86,-15.77 -26.08,-10.53 -50.74,-24.12 -73.92,-40.79l29.34 -43.5c18.88,14.49 39.34,26.45 61.47,35.88 22.12,9.43 44.03,14.15 65.79,14.15 29.72,0 52.56,-7.08 68.51,-21.21 15.97,-14.15 23.94,-32.82 23.94,-56.02 0,-18.11 -5.62,-32.81 -16.87,-44.03 -11.21,-11.25 -25.18,-21.04 -41.87,-29.39 -16.66,-8.31 -34.61,-15.94 -53.83,-22.81 -19.22,-6.91 -37.15,-15.41 -53.83,-25.58 -16.67,-10.14 -30.63,-22.81 -41.87,-38.05 -11.25,-15.24 -16.85,-34.82 -16.85,-58.74 0,-16.67 3.28,-32.45 9.8,-47.31 6.5,-14.87 16.14,-28.28 28.81,-40.23 12.67,-11.97 28.09,-21.39 46.23,-28.28 18.11,-6.9 38.42,-10.35 60.91,-10.35 23.92,0 47.12,4.2 69.59,12.51 22.49,8.35 43.13,18.67 61.98,31l-27.19 45.67c-16.68,-12.33 -33.53,-21.91 -50.56,-28.81 -17.05,-6.89 -35.35,-10.33 -54.91,-10.33 -30.46,0 -52.94,7.05 -67.45,21.21 -14.5,14.13 -21.74,30.62 -21.74,49.47 0,17.42 5.6,31.36 16.85,41.87 11.21,10.51 25.21,19.75 41.87,27.75 16.68,7.94 34.61,15.58 53.83,22.81 19.22,7.26 37.17,15.98 53.83,26.11 16.69,10.17 30.66,23.02 41.87,38.63 11.25,15.58 16.87,35.32 16.87,59.27l-0.01 0.01zm483.96 -101.15c0,-26.85 -4,-51.67 -11.97,-74.51 -7.97,-22.84 -19.22,-42.43 -33.71,-58.74 -14.5,-16.29 -31.9,-28.99 -52.2,-38.05 -20.31,-9.08 -42.77,-13.6 -67.43,-13.6 -24.65,0 -47.12,4.7 -67.45,14.13 -20.28,9.45 -37.68,22.31 -52.2,38.63 -14.49,16.28 -25.74,35.69 -33.71,58.16 -7.98,22.49 -11.97,47.13 -11.97,73.98 0,26.82 3.99,51.46 11.97,73.95 7.97,22.49 19.22,41.87 33.71,58.18 14.52,16.32 31.92,29.18 52.2,38.63 20.33,9.4 42.8,14.13 67.45,14.13 24.66,0 47.13,-4.73 67.43,-14.13 20.3,-9.45 37.7,-22.31 52.2,-38.63 14.49,-16.31 25.74,-35.69 33.71,-58.18 7.97,-22.49 11.97,-47.13 11.97,-73.95zm60.9 -1.08c0,32.61 -5.62,63.42 -16.84,92.43 -11.24,29.02 -26.85,54.21 -46.78,75.59 -19.93,21.38 -43.66,38.23 -71.22,50.56 -27.56,12.33 -58.01,18.51 -91.36,18.51 -33.34,0 -63.81,-6.18 -91.37,-18.51 -27.54,-12.33 -51.3,-28.99 -71.22,-50 -19.94,-21.05 -35.36,-46.04 -46.23,-75.06 -10.88,-28.99 -16.29,-59.82 -16.29,-92.43 0,-32.63 5.41,-63.25 16.29,-91.9 10.87,-28.65 26.29,-53.67 46.23,-75.06 19.93,-21.35 43.87,-38.22 71.78,-50.56 27.91,-12.33 58.55,-18.51 91.9,-18.51 33.35,0 63.81,6.18 91.35,18.51 27.56,12.34 51.3,29.02 71.26,50.03 19.94,21.05 35.32,45.86 46.2,74.51 10.88,28.65 16.31,59.27 16.31,91.9l-0.01 -0.01zm117.47 228.37l0 -797.18 59.8 0 0 797.18 -59.8 0zm520.94 0l0 -75.03c-10.17,10.88 -21.75,21.2 -34.79,30.99 -13.08,9.8 -27.02,18.67 -41.87,26.65 -14.87,8 -30.29,14.33 -46.23,19.03 -15.95,4.7 -32.29,7.08 -48.95,7.08 -52.93,0 -91.72,-14.87 -116.37,-44.59 -24.64,-29.73 -36.96,-67.43 -36.96,-113.11l0 -305.62 60.87 0 0 292.55c0,38.44 8.35,67.8 25.03,88.1 16.68,20.3 43.51,30.44 80.47,30.44 29.02,0 57.11,-8.34 84.3,-25 27.19,-16.69 51.3,-36.62 72.32,-59.8l0 -326.3 59.82 0 0 454.61 -57.64 0zm281.68 -401.32l0 284.94c0,47.87 25.38,71.78 76.15,71.78 8.68,0 17.03,-0.52 25.02,-1.6 7.94,-1.11 15.92,-2.38 23.92,-3.83l5.41 51.11c-12.34,2.19 -23.74,3.99 -34.25,5.46 -10.54,1.46 -21.94,2.17 -34.26,2.17 -39.16,0 -69.07,-10.33 -89.72,-30.99 -20.67,-20.65 -30.99,-53.49 -30.99,-98.43l0 -280.62 -77.22 0 0 -14.13 77.22 -42.4 0 -97.87 58.71 -43.5 0 144.62 143.57 0 0 53.28 -143.57 0 0.01 0.01zm564.46 139.24c-1.46,-21.05 -5.26,-40.61 -11.44,-58.75 -6.14,-18.11 -15.2,-33.89 -27.19,-47.3 -11.93,-13.42 -26.61,-23.92 -44.01,-31.53 -17.41,-7.63 -37.73,-11.43 -60.91,-11.43 -43.51,0 -78.12,13.6 -103.87,40.76 -25.74,27.19 -41.16,63.28 -46.23,108.25l293.64 0 0.01 0zm57.62 18.48c0,5.06 0,9.79 0,14.13 0,4.36 -0.71,9.44 -2.16,15.23l-351.27 0c1.43,23.95 5.97,46.23 13.6,66.88 7.6,20.67 19.01,38.62 34.24,53.86 15.24,15.21 34.27,27.19 57.11,35.88 22.84,8.71 49.84,13.04 81.03,13.04 21.01,0 42.58,-2.53 64.68,-7.6 22.12,-5.07 43.69,-11.59 64.71,-19.59l6.54 26.12c1.46,3.61 2.35,6.89 2.72,9.8 0.34,2.9 0.9,5.43 1.61,7.6 0.74,2.9 1.11,5.44 1.11,7.63 -23.21,8.71 -47.5,15.77 -72.87,21.21 -25.38,5.43 -49.32,8.16 -71.79,8.16 -39.89,0 -75.02,-6 -105.5,-17.95 -30.44,-11.97 -55.81,-28.62 -76.11,-50.03 -20.33,-21.39 -35.54,-46.39 -45.67,-75.03 -10.17,-28.65 -15.24,-59.27 -15.24,-91.9 0,-31.89 4.88,-62.18 14.68,-90.83 9.77,-28.64 24.1,-53.83 42.95,-75.58 18.85,-21.73 41.69,-38.97 68.51,-51.64 26.83,-12.7 56.92,-19.06 90.27,-19.06 31.92,0 60.2,5.65 84.86,16.88 24.63,11.24 45.3,26.64 61.98,46.23 16.66,19.56 29.18,42.76 37.52,69.58 8.34,26.83 12.48,55.84 12.48,87.03l0.01 -0.05zm523.15 7.6c0,-34.8 -14.87,-63.81 -44.59,-86.99 -29.73,-23.21 -73.95,-34.83 -132.7,-34.83 -14.5,0 -29.54,0.21 -45.12,0.56 -15.61,0.37 -28.09,1.27 -37.52,2.73l0 239.27c13.78,1.42 28.65,2.69 44.57,3.8 15.94,1.08 33.34,1.64 52.21,1.64 54.38,0 95.16,-11.62 122.35,-34.8 27.19,-23.21 40.79,-53.67 40.79,-91.37l0.01 -0.01zm-16.32 -336.05c0,-33.35 -12.33,-60.72 -36.99,-82.11 -24.65,-21.39 -61.98,-32.09 -111.99,-32.09 -16.72,0 -33.19,0.71 -49.51,2.17 -16.28,1.46 -31.34,3.27 -45.12,5.44l0 220.79c19.57,2.17 46.39,3.24 80.48,3.24 29.01,0 53.83,-3.06 74.51,-9.24 20.64,-6.14 37.52,-14.5 50.56,-25 13.07,-10.54 22.68,-22.86 28.82,-36.99 6.18,-14.15 9.24,-29.55 9.24,-46.23l0 0.02zm162.05 350.21c0,29.72 -6.89,58.34 -20.67,85.91 -13.78,27.56 -34.25,52.04 -61.44,73.42 -27.19,21.39 -60.91,38.42 -101.14,51.11 -40.23,12.68 -87.18,19.01 -140.85,19.01 -34.06,0 -69.78,-1.46 -107.11,-4.33 -37.33,-2.9 -73.42,-6.53 -108.22,-10.88l0 -780.86c29.73,-4.36 63.08,-8.01 100.04,-10.88 36.99,-2.9 71.78,-4.36 104.41,-4.36 52.22,0 97.9,5.78 137.05,17.4 39.16,11.62 71.76,27.19 97.87,46.76 26.11,19.59 45.67,41.87 58.74,66.91 13.04,25 19.57,50.93 19.57,77.75 0,42.06 -10.7,78.12 -32.08,108.21 -21.41,30.1 -57.11,54.54 -107.14,73.42 58.71,16.67 100.24,41.66 124.53,75.03 24.29,33.35 36.43,72.12 36.43,116.38l0.01 0zm130.5 221.84l0 -797.18 135.97 0 0 673.2 350.21 0 0 123.98 -486.18 0zm877.68 -556.83l-113.11 266.47 226.21 0 -113.1 -266.47zm234.89 556.83l-77.19 -182.7 -315.39 0 -77.22 182.7 -140.3 0 367.62 -808.06 19.56 0 366.5 808.06 -143.57 0 -0.01 0zm889.66 -61.99c-33.37,21.02 -72.52,38.81 -117.45,53.28 -44.97,14.52 -92.46,21.78 -142.49,21.78 -63.08,0 -120.92,-10.35 -173.46,-30.99 -52.59,-20.68 -97.9,-49.32 -135.96,-85.94 -38.07,-36.59 -67.62,-79.91 -88.63,-129.95 -21.05,-50.03 -31.55,-104.78 -31.55,-164.24 0,-58.71 10.71,-113.28 32.1,-163.66 21.38,-50.41 51.11,-94.1 89.18,-131.06 38.07,-36.99 83.38,-65.79 135.94,-86.46 52.56,-20.68 110.01,-31 172.38,-31 50.03,0 96.79,6.9 140.29,20.68 43.51,13.75 82.29,31.15 116.38,52.2l-46.78 115.27c-31.89,-18.11 -66.32,-32.79 -103.31,-44.04 -36.99,-11.24 -73.21,-16.84 -108.74,-16.84 -43.51,0 -82.66,6.86 -117.49,20.67 -34.79,13.75 -64.34,33.14 -88.59,58.17 -24.32,25.02 -42.98,55.1 -56.02,90.26 -13.04,35.17 -19.57,73.76 -19.57,115.82 0,42.06 6.68,80.5 20.12,115.29 13.41,34.8 32.42,64.71 57.07,89.72 24.66,25.02 54.57,44.4 89.72,58.18 35.19,13.78 74.51,20.68 118.04,20.68 35.52,0 72.48,-5.81 110.91,-17.41 38.42,-11.59 73.95,-26.85 106.58,-45.7l41.34 115.29 -0.01 0zm581.83 61.99l-326.26 -382.82 0 382.82 -135.97 0 0 -797.18 135.97 0 0 358.89 313.22 -358.89 164.21 0 -348.01 382.84 365.42 414.34 -168.58 0z"/>
  <path class="fil1" d="M3373.36 96.72c-111.77,0 -202.44,90.38 -202.9,202.05l-0.02 0.86c0,18.01 14.61,32.62 32.62,32.62 18.01,0 32.61,-14.61 32.61,-32.62 0,-76.04 61.65,-137.69 137.69,-137.69l259.52 0 0 275.39 -259.52 0c-126.07,0 -228.28,102.21 -228.28,228.28 0,126.08 102.21,228.29 228.28,228.29l584 0c126.08,0 228.28,-102.21 228.28,-228.29 0,-84.64 -46.06,-158.52 -114.49,-197.94 53.79,-36.5 89.13,-98.14 89.13,-168.04 0,-112.07 -90.85,-202.91 -202.92,-202.91l-584 0zm0 731.95c-90.05,0 -163.06,-73 -163.06,-163.06 0,-90.05 73.01,-163.06 163.06,-163.06l259.52 0 0 326.12 -259.52 0zm584 -666.73l-259.26 0 0 275.39 259.26 0c76.05,0 137.7,-61.65 137.7,-137.7 0,-76.04 -61.65,-137.69 -137.7,-137.69zm0 340.61l-259.26 0 0 326.12 259.26 0c90.06,0 163.06,-73 163.06,-163.06 0,-90.05 -73,-163.06 -163.06,-163.06z"/>
  <path class="fil2" d="M7262.58 1271.22c-15.74,0 -30.47,-3.03 -44.19,-9.1 -13.72,-6.07 -25.74,-14.39 -36.09,-24.96 -10.34,-10.57 -18.44,-22.82 -24.29,-36.77 -5.84,-13.94 -8.76,-28.78 -8.76,-44.52 0,-16.19 2.92,-31.37 8.76,-45.53 5.85,-14.17 13.84,-26.54 23.95,-37.11 10.12,-10.56 22.15,-18.88 36.1,-24.95 13.93,-6.07 28.78,-9.11 44.52,-9.11 15.74,0 30.58,3.04 44.52,9.11 13.95,6.07 26.09,14.39 36.43,24.95 10.34,10.57 18.44,22.94 24.29,37.11 5.84,14.16 8.76,29.34 8.76,45.53 0,15.74 -2.92,30.58 -8.76,44.52 -5.85,13.95 -13.95,26.2 -24.29,36.77 -10.34,10.57 -22.48,18.89 -36.43,24.96 -13.94,6.07 -28.78,9.1 -44.52,9.1zm0 -16.19c13.49,0 25.97,-2.69 37.44,-8.09 11.47,-5.39 21.58,-12.59 30.36,-21.58 8.76,-9 15.62,-19.45 20.57,-31.37 4.95,-11.92 7.42,-24.63 7.42,-38.12 0,-13.94 -2.47,-26.99 -7.42,-39.13 -4.95,-12.14 -11.81,-22.71 -20.57,-31.7 -8.78,-9 -18.89,-16.08 -30.36,-21.25 -11.47,-5.17 -23.95,-7.76 -37.44,-7.76 -13.04,0 -25.41,2.59 -37.1,7.76 -11.7,5.17 -21.82,12.25 -30.36,21.25 -8.54,8.99 -15.29,19.56 -20.24,31.7 -4.95,12.14 -7.42,25.19 -7.42,39.13 0,13.49 2.47,26.2 7.42,38.12 4.95,11.92 11.7,22.37 20.24,31.37 8.54,8.99 18.66,16.19 30.36,21.58 11.69,5.4 24.06,8.09 37.1,8.09zm-16.87 -100.51c2.25,0.45 4.39,0.67 6.41,0.67 2.02,0 3.93,0 5.74,0 17.53,0 26.3,-7.41 26.3,-22.26 0,-12.59 -8.31,-18.88 -24.96,-18.88 -2.24,0 -4.6,0 -7.08,0 -2.47,0 -4.61,0.22 -6.41,0.67l0 39.8zm-18.89 -55.31c9.45,-1.35 19.57,-2.03 30.36,-2.03 15.74,0 27.44,3.49 35.08,10.46 7.65,6.97 11.46,15.17 11.46,24.62 0,7.64 -1.9,14.5 -5.72,20.58 -3.83,6.07 -8.89,10.45 -15.18,13.15l29 45.2 -22.26 0 -24.96 -41.15c-1.8,0.45 -3.49,0.67 -5.06,0.67 -1.57,0 -2.81,0 -3.71,0 -0.9,0 -2.24,0 -4.05,0 -1.8,0 -3.82,-0.22 -6.07,-0.67l0 41.15 -18.89 0 0 -111.98z"/>
 </g>
</svg>
