<svg xmlns="http://www.w3.org/2000/svg" fill="none" viewBox="0 0 154 32" height="32" width="154">
<g clip-path="url(#clip0_14108_3248)">
<path fill="white" d="M19.2904 16.7754C18.4819 18.1416 16.8463 21.8769 10.7454 21.8769H6.90198L11.8088 5.48309C12.0638 4.6154 12.6049 4.00617 13.289 3.63693C13.9669 3.27386 15.0054 3.08924 16.3861 3.08924L16.8463 1.55078H6.90198L6.44176 3.08924C7.57364 3.08924 8.23908 3.26155 8.58735 3.62463C8.93561 3.9877 8.97915 4.60309 8.72417 5.47078L4.41434 19.8585C4.15936 20.7262 3.74268 21.3415 3.17053 21.7046C2.59215 22.0677 1.83342 22.2462 0.70777 22.2462L0.247559 23.7846H18.5379L20.6337 16.7692H19.2966L19.2904 16.7754Z"></path>
<path fill="white" d="M28.3516 4.83019C28.8802 4.83019 29.3342 4.65788 29.7011 4.31942C30.068 3.97481 30.2546 3.54404 30.2546 3.02096C30.2546 2.49788 30.068 2.05481 29.7011 1.70404C29.3342 1.35327 28.8802 1.1748 28.3516 1.1748C27.8229 1.1748 27.3752 1.35327 27.0207 1.70404C26.66 2.06096 26.4858 2.49788 26.4858 3.02096C26.4858 3.54404 26.6662 3.98096 27.0207 4.31942C27.3752 4.66404 27.8229 4.83019 28.3516 4.83019Z"></path>
<path fill="white" d="M28.9174 19.1691L28.1213 18.5845C27.431 19.6552 26.8464 20.4552 26.3738 20.9783C25.9011 21.5014 25.5404 21.766 25.2854 21.766C25.0989 21.766 25.0056 21.606 24.9931 21.286C24.9807 20.966 25.0802 20.3322 25.3538 19.3722L28.8054 7.83984H28.1027L22.7791 9.57523L22.4931 10.5414L25.0118 11.0891L22.3127 20.1229C21.896 21.4891 21.7903 22.4983 21.9831 23.1506C22.1759 23.8029 22.6361 24.1229 23.3513 24.1229C24.1349 24.1229 24.9869 23.7475 25.9073 22.9968C26.8278 22.246 27.829 20.966 28.9174 19.1629V19.1691Z"></path>
<path fill="white" d="M57.4509 19.4464C56.9223 20.1972 56.4683 20.7572 56.0827 21.1202C55.7033 21.4833 55.411 21.6679 55.1996 21.6679C55.0379 21.6679 54.9446 21.5572 54.9259 21.3418C54.9011 21.1264 55.0068 20.6402 55.2369 19.8895L57.3452 13.0772C57.7121 11.871 57.8551 10.8741 57.7805 10.0987C57.6996 9.32333 57.4695 8.75102 57.0902 8.38794C56.7108 8.02486 56.2568 7.84025 55.722 7.84025C55.1871 7.84025 54.5404 8.05563 53.8376 8.49256C53.1348 8.92332 52.289 9.62486 51.294 10.5972C50.6907 11.1879 50.0377 11.8526 49.223 12.7141L52.9731 0.178711H52.146L46.9095 1.55102L46.6483 2.42486L49.1173 3.14486L42.9355 23.791H45.9083L48.682 14.5295C49.8636 13.2926 50.7654 12.3695 51.4992 11.7418C52.5129 10.8741 53.2841 10.4433 53.8189 10.4433C54.8078 10.4433 55.0068 11.3541 54.4097 13.1818L52.1958 20.1602C51.7604 21.5264 51.636 22.5356 51.835 23.1695C52.0278 23.8095 52.5005 24.1295 53.2343 24.1295C54.0179 24.1295 54.8637 23.7541 55.7779 23.0033C56.6859 22.2526 57.7183 20.9726 58.875 19.1695L58.079 18.5541L57.4571 19.4464H57.4509Z"></path>
<path fill="white" d="M68.0481 3.1751L64.7955 4.48587L63.6326 8.39356H61.1014L60.5914 10.1043H63.1164L60.2183 19.7966C59.7332 21.3966 59.5901 22.5105 59.87 23.1566C60.1436 23.8089 60.6785 24.1289 61.4621 24.1289C62.339 24.1289 63.2905 23.7351 64.3166 22.9474C65.3428 22.1597 66.5928 20.8551 68.0668 19.0274L67.2396 18.3074C66.1762 19.6059 65.3117 20.5474 64.6463 21.132C63.9746 21.7166 63.4709 22.0059 63.1226 22.0059C62.5069 22.0059 62.5629 21.4766 62.6935 21.0828C62.8365 20.6397 63.0106 20.0428 63.2594 19.1997L65.9896 10.0982H69.466L69.976 8.38741H66.4995L68.0605 3.16895L68.0481 3.1751Z"></path>
<path fill="white" d="M91.3069 8.86822C90.94 8.41283 90.43 8.18514 89.7833 8.18514C89.4163 8.18514 89.0307 8.2713 88.6265 8.4436C88.2223 8.61591 87.8118 8.88053 87.4013 9.24976C88.0668 9.50206 88.5457 9.83437 88.8379 10.2405C89.124 10.6528 89.2733 11.2128 89.2733 11.9144C89.2733 13.0344 88.9997 14.1728 88.4586 15.3359C87.9175 16.499 87.0904 17.6744 85.9834 18.8621L84.5219 20.419L83.7445 7.84668H83.0107C83.0107 7.84668 76.2692 16.6713 74.7642 19.0959L76.3376 7.84668H75.7157L71.8039 9.14514L71.5054 10.1298L73.5328 10.8559L72.1646 23.7913H73.1659C74.59 21.8159 80.3302 14.1728 81.2445 12.6713L81.9659 23.7913H82.9671L87.6004 18.8313C89.1676 17.1451 90.2683 15.6559 90.9027 14.3636C91.537 13.0774 91.8542 11.8467 91.8542 10.6836C91.8542 9.93283 91.6676 9.3236 91.3007 8.86822H91.3069Z"></path>
<path fill="white" d="M100.579 14.3821C102.122 13.8098 103.241 13.1698 103.931 12.4498C104.622 11.7298 104.97 10.9851 104.97 10.2098C104.97 9.47745 104.665 8.90514 104.056 8.48053C103.446 8.05591 102.607 7.84668 101.55 7.84668C100.007 7.84668 98.4898 8.40668 97.0034 9.52053C95.517 10.6405 94.3043 12.0682 93.3715 13.8159C92.4386 15.5636 91.9722 17.3113 91.9722 19.0713C91.9722 20.5544 92.3826 21.7667 93.1973 22.7144C94.0182 23.6621 95.1377 24.1359 96.5681 24.1359C97.8119 24.1359 99.093 23.6374 100.405 22.6282C101.717 21.6251 102.93 20.1421 104.037 18.179L103.173 17.699C102.066 19.299 101.083 20.4251 100.219 21.0898C99.3542 21.7544 98.4711 22.0805 97.5756 22.0805C96.7484 22.0805 96.1016 21.7667 95.6414 21.139C95.1812 20.5113 94.9511 19.6067 94.9511 18.419C94.9511 17.4651 95.1004 16.4867 95.3927 15.4713C97.4761 15.2559 99.205 14.8928 100.586 14.3821H100.579ZM97.986 10.6836C98.8878 9.7236 99.8082 9.2436 100.754 9.2436C101.214 9.2436 101.556 9.36053 101.773 9.58822C101.991 9.81591 102.103 10.099 102.103 10.4436C102.103 11.0159 101.848 11.6005 101.344 12.2036C100.834 12.8067 100.045 13.3298 98.9562 13.779C98.0544 14.1482 96.9661 14.3944 95.7036 14.5174C95.7347 14.4374 95.7596 14.3575 95.7969 14.2713C96.3628 12.8313 97.0967 11.6374 97.9922 10.6774L97.986 10.6836Z"></path>
<path fill="white" d="M41.9715 8.07392C39.2227 8.48623 36.6915 9.62469 34.7698 11.717C32.9103 13.7416 30.9948 17.1755 30.5097 18.8985C30.1677 20.117 29.9998 21.1016 30.0744 21.877C30.1242 22.3816 30.2423 22.7939 30.4227 23.1262C29.7137 23.8401 28.3828 25.2062 27.8853 26.0739C26.9027 27.7416 27.1017 29.6247 28.9798 30.5539C30.4849 31.2862 32.1889 31.2801 33.7872 30.9539C36.2562 30.4493 38.7251 28.3755 39.7513 25.4401C40.3297 23.797 45.05 7.69238 45.05 7.69238L41.9653 8.08008L41.9715 8.07392ZM36.8843 25.1262C36.1629 27.3724 34.8631 28.3693 33.2088 29.0093C32.0707 29.4462 30.7336 29.6555 29.5769 29.2555C27.2696 28.3447 29.7634 25.0832 30.97 23.7601C31.3058 24.0124 31.6914 24.1355 32.1329 24.1355C32.6864 24.1355 33.3145 23.9201 34.0173 23.4832C34.7201 23.0524 35.5659 22.3508 36.5609 21.3785C37.1642 20.7878 37.8172 20.1232 38.6319 19.2616C38.6319 19.2616 37.3818 23.5878 36.8905 25.1262H36.8843ZM39.1729 17.4462C37.9913 18.6832 37.0895 19.6062 36.3557 20.2339C35.342 21.1016 34.5708 21.5324 34.036 21.5324C33.0471 21.5324 32.6304 20.6278 32.929 18.7262C33.1902 17.0462 34.1417 14.277 35.6654 12.5232C37.2574 10.7324 39.1791 10.0739 41.3123 10.2955L39.1729 17.4462Z"></path>
<path fill="white" d="M141.819 19.4464C141.29 20.1972 140.836 20.7572 140.451 21.1202C140.071 21.4833 139.779 21.6679 139.568 21.6679C139.406 21.6679 139.313 21.5572 139.294 21.3418C139.269 21.1264 139.375 20.6402 139.605 19.8895L141.713 13.0772C142.08 11.871 142.223 10.8741 142.149 10.0987C142.068 9.32333 141.838 8.75102 141.458 8.38794C141.079 8.02486 140.625 7.84025 140.09 7.84025C139.555 7.84025 138.909 8.05563 138.206 8.49256C137.503 8.92332 136.657 9.62486 135.662 10.5972C135.059 11.1879 134.406 11.8526 133.591 12.7141L137.341 0.178711H136.514L131.278 1.55102L131.017 2.42486L133.485 3.14486L127.304 23.791H130.276L133.05 14.5295C134.232 13.2926 135.134 12.3695 135.867 11.7418C136.881 10.8741 137.652 10.4433 138.187 10.4433C139.176 10.4433 139.375 11.3541 138.778 13.1818L136.564 20.1602C136.129 21.5264 136.004 22.5356 136.203 23.1695C136.396 23.8095 136.869 24.1295 137.603 24.1295C138.386 24.1295 139.232 23.7541 140.146 23.0033C141.054 22.2526 142.086 20.9726 143.243 19.1695L142.447 18.5541L141.825 19.4464H141.819Z"></path>
<path fill="white" d="M152.416 3.17607L149.163 4.48684L148 8.39454H145.469L144.959 10.1053H147.484L144.586 19.7976C144.101 21.3976 143.958 22.5115 144.238 23.1576C144.511 23.8099 145.046 24.1299 145.83 24.1299C146.707 24.1299 147.658 23.7361 148.684 22.9484C149.71 22.1607 150.961 20.8561 152.434 19.0284L151.607 18.3084C150.544 19.6068 149.679 20.5484 149.014 21.133C148.342 21.7176 147.839 22.0068 147.49 22.0068C146.875 22.0068 146.931 21.4776 147.061 21.0838C147.204 20.6407 147.378 20.0438 147.627 19.2007L150.357 10.0992H153.834L154.344 8.38838H150.867L152.428 3.16992L152.416 3.17607Z"></path>
<path fill="white" d="M126.339 8.07392C123.59 8.48623 121.059 9.62469 119.137 11.717C117.278 13.7416 115.363 17.1755 114.877 18.8985C114.535 20.117 114.367 21.1016 114.442 21.877C114.492 22.3816 114.61 22.7939 114.79 23.1262C114.081 23.8401 112.75 25.2062 112.253 26.0739C111.27 27.7416 111.469 29.6247 113.348 30.5539C114.853 31.2862 116.557 31.2801 118.155 30.9539C120.624 30.4493 123.093 28.3755 124.119 25.4401C124.697 23.797 129.418 7.69238 129.418 7.69238L126.333 8.08008L126.339 8.07392ZM121.252 25.1262C120.531 27.3724 119.231 28.3693 117.576 29.0093C116.438 29.4462 115.101 29.6555 113.945 29.2555C111.637 28.3447 114.131 25.0832 115.338 23.7601C115.673 24.0124 116.059 24.1355 116.501 24.1355C117.054 24.1355 117.682 23.9201 118.385 23.4832C119.088 23.0524 119.934 22.3508 120.929 21.3785C121.532 20.7878 122.185 20.1232 123 19.2616C123 19.2616 121.75 23.5878 121.258 25.1262H121.252ZM123.541 17.4462C122.359 18.6832 121.457 19.6062 120.723 20.2339C119.71 21.1016 118.938 21.5324 118.404 21.5324C117.415 21.5324 116.998 20.6278 117.297 18.7262C117.558 17.0462 118.509 14.277 120.033 12.5232C121.625 10.7324 123.547 10.0739 125.68 10.2955L123.541 17.4462Z"></path>
<path fill="white" d="M114.175 4.83019C114.703 4.83019 115.157 4.65788 115.524 4.31942C115.891 3.97481 116.078 3.54404 116.078 3.02096C116.078 2.49788 115.891 2.05481 115.524 1.70404C115.157 1.35327 114.703 1.1748 114.175 1.1748C113.646 1.1748 113.198 1.35327 112.844 1.70404C112.483 2.06096 112.309 2.49788 112.309 3.02096C112.309 3.54404 112.489 3.98096 112.844 4.31942C113.198 4.66404 113.646 4.83019 114.175 4.83019Z"></path>
<path fill="white" d="M113.472 19.1691L112.676 18.5845C111.986 19.6552 111.401 20.4552 110.928 20.9783C110.456 21.5014 110.095 21.766 109.84 21.766C109.654 21.766 109.56 21.606 109.548 21.286C109.535 20.966 109.635 20.3322 109.909 19.3722L113.36 7.83984H112.657L107.334 9.57523L107.048 10.5414L109.566 11.0891L106.867 20.1229C106.451 21.4891 106.345 22.4983 106.538 23.1506C106.731 23.8029 107.191 24.1229 107.906 24.1229C108.69 24.1229 109.542 23.7475 110.462 22.9968C111.382 22.246 112.384 20.966 113.472 19.1629V19.1691Z"></path>
</g>
<defs>
<clipPath id="clip0_14108_3248">
<rect fill="white" height="32" width="153.846"></rect>
</clipPath>
</defs>
</svg>
