<svg xmlns="http://www.w3.org/2000/svg" fill="none" viewBox="0 0 176 45" height="45" width="176">
<g clip-path="url(#clip0_812_1414)">
<mask height="45" width="176" y="0" x="0" maskUnits="userSpaceOnUse" style="mask-type:luminance" id="mask0_812_1414">
<path fill="white" d="M175.06 0H0.94043V45H175.06V0Z"></path>
</mask>
<g mask="url(#mask0_812_1414)">
<path fill="#ED1C24" d="M35.3194 14.7215L27.7944 27.7463C27.3629 28.4896 26.2842 28.4845 25.863 27.7361L22.4626 21.7029C22.0414 20.9545 20.9627 20.9494 20.5313 21.6927L16.9768 27.813C16.5504 28.5511 15.482 28.5511 15.0557 27.813L12.8829 24.066C12.6826 23.7225 12.6826 23.3022 12.8829 22.9536L25.8425 0.553594C26.2688 -0.184531 27.3423 -0.184531 27.7687 0.553594L35.3246 13.6092C35.5198 13.9526 35.5198 14.3729 35.3246 14.7164"></path>
<path fill="#ED1C24" d="M51.556 45H2.05492C1.20225 45 0.662914 44.0722 1.09439 43.3341L10.2221 27.5516C10.6484 26.8134 11.7168 26.8134 12.1483 27.5516L15.0607 32.5749C15.487 33.313 16.5555 33.313 16.9869 32.5749L20.5055 26.5059C20.9369 25.7626 22.0156 25.7678 22.4368 26.5213L25.8372 32.5647C26.2584 33.313 27.3371 33.3233 27.7686 32.5749L36.0641 18.2122C36.4905 17.469 37.564 17.469 37.9903 18.2122L52.5268 43.3341C52.9532 44.0722 52.419 45 51.5663 45"></path>
<path fill="#231F20" d="M71.5322 13.5015H75.5233L72.0664 31.3395H67.2585L65.394 20.4521C65.3683 20.3035 65.1526 20.3035 65.1269 20.4521L63.2623 31.3395H58.4545L54.9976 13.5015H59.1582L60.7351 25.9419C60.7557 26.0957 60.9765 26.1009 61.0022 25.9471L63.2109 13.5015H67.2842L69.4981 25.9881C69.5238 26.1419 69.7446 26.1367 69.7652 25.9881L71.527 13.5066L71.5322 13.5015Z"></path>
<path fill="#231F20" d="M175.055 28.387H145.545V31.5035H175.055V28.387Z"></path>
<path fill="#231F20" d="M85.7451 13.5015H89.7105V31.3292H85.7451V23.9839H82.1495V31.3292H78.1892V13.5015H82.1495V21.0416H85.7451V13.5015Z"></path>
<path fill="#231F20" d="M97.3794 28.387H103.107V31.3292H93.3574V13.5015H102.886V16.4437H97.3794V20.7904H102.069V23.7327H97.3794V28.387Z"></path>
<path fill="#231F20" d="M109.99 28.387H115.722V31.3292H105.973V13.5015H115.496V16.4437H109.99V20.7904H114.685V23.7327H109.99V28.387Z"></path>
<path fill="#231F20" d="M122.579 28.387H127.716V31.3292H118.588V13.5015H122.579V28.387Z"></path>
<path fill="#231F20" d="M136.34 27.6847V24.4606C136.34 24.2197 136.284 24.0454 136.171 23.9429C136.058 23.8403 135.862 23.7891 135.58 23.7891H133.109C130.901 23.7891 129.796 22.7434 129.796 20.6521V16.5872C129.796 14.5318 130.978 13.5015 133.335 13.5015H136.761C139.124 13.5015 140.3 14.5318 140.3 16.5872V18.9144H136.284V17.1511C136.284 16.6846 136.032 16.4488 135.523 16.4488H134.568C134.059 16.4488 133.808 16.6846 133.808 17.1511V20.2881C133.808 20.529 133.864 20.7033 133.977 20.8058C134.09 20.9083 134.285 20.9596 134.568 20.9596H136.982C138.179 20.9596 139.042 21.2159 139.566 21.7285C140.09 22.2411 140.352 23.0048 140.352 24.0146V28.2178C140.352 30.2938 139.17 31.3292 136.813 31.3292H133.412C131.034 31.3292 129.842 30.2938 129.842 28.2178V25.9163H133.859V27.6796C133.859 28.1461 134.111 28.3819 134.619 28.3819H135.575C136.078 28.3819 136.335 28.1512 136.335 27.6796"></path>
<path fill="#231F20" d="M148.385 25.2038H145.545V13.5374H149.022L150.918 19.7704L152.813 13.5374H156.291V25.2038H153.471V18.7196C153.471 18.5658 153.25 18.5299 153.204 18.6786L152.012 22.6768H149.829L148.658 18.7196C148.611 18.571 148.391 18.6017 148.391 18.7606V25.2038H148.385Z"></path>
<path fill="#231F20" d="M165.48 15.8132H161.658V18.6478H164.971V20.7341H161.658V25.2038H158.474V13.5425H165.48V15.8132Z"></path>
<path fill="#231F20" d="M175.059 17.5355H171.875V16.0285C171.875 15.762 171.726 15.6287 171.417 15.6287H170.76C170.457 15.6287 170.303 15.762 170.303 16.0285V22.7127C170.303 22.9792 170.457 23.1125 170.76 23.1125H171.417C171.721 23.1125 171.875 22.9792 171.875 22.7127V20.77H170.965V18.7504H175.064V22.9484C175.064 24.4503 174.171 25.1987 172.388 25.1987H169.805C168.022 25.1987 167.128 24.4452 167.128 22.9484V15.7876C167.128 14.2857 168.022 13.5322 169.805 13.5322H172.388C174.171 13.5322 175.064 14.2857 175.064 15.7876V17.5304L175.059 17.5355Z"></path>
</g>
</g>
<defs>
<clipPath id="clip0_812_1414">
<rect transform="translate(0.94043)" fill="white" height="45" width="174.119"></rect>
</clipPath>
</defs>
</svg>
