<svg xmlns="http://www.w3.org/2000/svg" fill="none" viewBox="0 0 421 56" height="56" width="421">
<path fill="#7FC6BA" d="M26.3089 36.6768C32.0149 36.6768 36.6208 41.2828 36.6208 46.9878V55.2798H29.7458V46.9878C29.7458 45.0638 28.2339 43.5498 26.3089 43.5498H17.7869V43.5528H13.4939C12.3949 43.5528 11.5059 42.6598 11.5059 41.5568V36.6768H26.3089Z"></path>
<path fill="#7FC6BA" d="M52.0845 36.6768C46.3765 36.6768 41.7715 41.2828 41.7715 46.9878V55.2798H48.6465V46.9878C48.6465 45.0638 50.1595 43.5498 52.0845 43.5498H60.6065V43.5528H64.9005C66.0005 43.5528 66.8885 42.6598 66.8885 41.5568V36.6768H52.0845Z"></path>
<path fill="#7FC6BA" d="M52.0845 31.9721C46.3765 31.9721 41.7715 27.3661 41.7715 21.6611V13.3701H48.6465V21.6611C48.6465 23.5861 50.1595 25.0981 52.0845 25.0981H60.6065V25.0961H64.9005C66.0005 25.0961 66.8885 25.9891 66.8885 27.0921V31.9721H52.0845Z"></path>
<path fill="#7FC6BA" d="M26.3089 31.9721C32.0149 31.9721 36.6208 27.3661 36.6208 21.6611V13.3701H29.7458V21.6611C29.7458 23.5861 28.2339 25.0981 26.3089 25.0981H17.7869V25.0961H13.4939C12.3949 25.0961 11.5059 25.9891 11.5059 27.0921V31.9721H26.3089Z"></path>
<path fill="#C92539" d="M10.312 13.3447C4.606 13.3447 0 17.9497 0 23.6557V31.9487H6.876V23.6557C6.876 21.7317 8.387 20.2197 10.312 20.2197H18.833V20.2207H23.129C24.227 20.2207 25.117 19.3277 25.117 18.2267V13.3447H10.312Z"></path>
<path fill="#C92539" d="M68.264 13.3447C73.97 13.3447 78.576 17.9497 78.576 23.6557V31.9487H71.701V23.6557C71.701 21.7317 70.189 20.2197 68.264 20.2197H59.743V20.2207H55.449C54.35 20.2207 53.459 19.3277 53.459 18.2267V13.3447H68.264Z"></path>
<path fill="#C92539" d="M10.312 55.2798C4.606 55.2798 0 50.6728 0 44.9678V36.6768H6.876V44.9678C6.876 46.8928 8.387 48.4048 10.312 48.4048H23.129C24.227 48.4048 25.117 49.2958 25.117 50.3988V55.2798H10.312Z"></path>
<path fill="#C92539" d="M68.264 55.2798C73.97 55.2798 78.576 50.6728 78.576 44.9678V36.6768H71.701V44.9678C71.701 46.8928 70.189 48.4048 68.264 48.4048H55.449C54.35 48.4048 53.459 49.2958 53.459 50.3988V55.2798H68.264Z"></path>
<path fill="#C92539" d="M149.013 3.627L142.619 0L139.181 6.33501L135.743 0L129.349 3.627L133.068 9.847L125.977 9.64401V16.999L133.073 16.863L129.43 22.938L135.733 26.663L139.181 20.375L142.628 26.658L149.016 22.938L145.305 16.863L152.459 16.999V9.64401L145.295 9.847L149.013 3.627Z"></path>
<path fill="#C92539" d="M172.722 42.832C171.687 41.859 171.184 40.23 171.184 37.853V25.255H178.04V14.99H171.184V5.33203H159.814V14.99H155.244V25.255H159.814V37.779C159.814 43.523 161.55 48.12 164.833 51.073C167.458 53.435 171.021 54.654 175.239 54.654C176.052 54.654 176.89 54.607 177.751 54.517L178.484 54.439V43.985L177.615 44.039C175.34 44.179 173.733 43.782 172.722 42.832Z"></path>
<path fill="#C92539" d="M203.613 14.033C200.815 14.033 198.12 14.796 195.734 16.25V5.33203H184.291V54.595H195.734V31.586C195.734 27.756 198.367 25.181 202.287 25.181C207.731 25.181 208.544 29.194 208.544 31.586V54.595H219.915V31.586C219.915 21.087 213.363 14.033 203.613 14.033Z"></path>
<path fill="#C92539" d="M236.723 5.41016H225.354V12.2642H236.723V5.41016Z"></path>
<path fill="#C92539" d="M236.723 14.9902H225.354V54.5952H236.723V14.9902Z"></path>
<path fill="#C92539" d="M252.871 17.5057V14.9887H241.943V54.5937H253.312V35.1227C253.312 32.4487 253.575 29.4457 255.525 27.4267C257.335 25.4977 260.007 24.8467 264.197 25.3227L265.109 25.4257V14.3747L264.421 14.2647C260.034 13.5537 255.924 14.7267 252.871 17.5057Z"></path>
<path fill="#C92539" d="M287.583 42.832C286.548 41.859 286.045 40.23 286.045 37.853V25.255H292.901V14.99H286.045V5.33203H274.675V14.99H270.105V25.255H274.675V37.779C274.675 43.523 276.411 48.12 279.694 51.073C282.319 53.435 285.882 54.654 290.1 54.654C290.913 54.654 291.751 54.607 292.611 54.517L293.344 54.439V43.985L292.476 44.039C290.196 44.179 288.592 43.782 287.583 42.832Z"></path>
<path fill="#C92539" d="M404.514 14.0332C401.107 14.0332 398.036 15.2152 395.529 17.4722V14.9902H384.602V54.5952H395.971V31.5862C395.971 27.7032 398.728 24.8852 402.524 24.8852C407.969 24.8852 408.782 29.0832 408.782 31.5862V54.5952H420.153V31.5862C420.153 21.0872 413.868 14.0332 404.514 14.0332Z"></path>
<path fill="#C92539" d="M316.34 24.0283C320.215 24.0283 323.216 26.1683 324.581 29.5793H308.294C309.813 26.1683 312.753 24.0283 316.34 24.0283ZM322.523 42.5963C321.038 44.1693 318.845 45.0753 316.34 45.0753C312.507 45.0753 309.501 42.8253 308.099 39.2403H336.313L336.382 38.4703C336.475 37.4283 336.523 36.4023 336.523 35.4133C336.523 29.2253 334.673 23.9453 331.094 20.0223C327.424 15.9873 322.219 13.7783 316.417 13.7783C305.2 13.7783 296.074 23.1223 296.074 34.6273C296.074 46.0533 305.2 55.3353 316.417 55.3353C325.521 55.3353 332.637 50.4583 335.292 42.5963H322.523Z"></path>
<path fill="#C92539" d="M359.489 24.0283C363.364 24.0283 366.365 26.1683 367.729 29.5793H351.443C352.962 26.1683 355.902 24.0283 359.489 24.0283ZM365.672 42.5963C364.187 44.1693 361.994 45.0753 359.489 45.0753C355.657 45.0753 352.65 42.8253 351.248 39.2403H379.462L379.531 38.4703C379.624 37.4283 379.672 36.4023 379.672 35.4133C379.672 29.2253 377.822 23.9453 374.243 20.0223C370.573 15.9873 365.368 13.7783 359.566 13.7783C348.348 13.7783 339.223 23.1223 339.223 34.6273C339.223 46.0533 348.348 55.3353 359.566 55.3353C368.67 55.3353 375.786 50.4583 378.441 42.5963H365.672Z"></path>
<path fill="#C92539" d="M109.83 23.9932C113.705 23.9932 116.706 26.1332 118.071 29.5442H101.784C103.303 26.1332 106.243 23.9932 109.83 23.9932ZM116.013 42.5612C114.529 44.1342 112.335 45.0402 109.83 45.0402C105.998 45.0402 102.992 42.7902 101.589 39.2052H129.803L129.872 38.4352C129.965 37.3932 130.013 36.3672 130.013 35.3782C130.013 29.1902 128.163 23.9102 124.584 19.9872C120.914 15.9522 115.709 13.7432 109.908 13.7432C98.6905 13.7432 89.5645 23.0872 89.5645 34.5922C89.5645 46.0182 98.6905 55.3002 109.908 55.3002C119.011 55.3002 126.127 50.4232 128.782 42.5612H116.013Z"></path>
</svg>
