<svg xmlns="http://www.w3.org/2000/svg" viewBox="0 0 158 32" role="img" aria-labelledby="beto-logo-title">
  <title id="beto-logo-title">Beto logo</title>
  <path fill="#1F2C53" d="M45.787,5.88l1.309-5.135L47.314,0h0.726h29.981h1.167L78.9,1.116l-1.387,5.136L77.292,7h-0.656H54.151h-0.724h-6.842h-1.09L45.787,5.88z M51.244,18.088l-1.673,6.391h22.341h1.086L72.709,25.6l-1.458,5.654L71.037,32h-0.73H40.035h-1.09l0.293-1.194l5.674-21.579l0.146-0.742h0.729h6.911h1.095l-0.296,1.117l-0.87,3.348L51.244,18.088z"/>
  <path fill="#1F2C53" d="M102.254,9.824l-5.604,21.43L96.435,32h-0.729h-6.844h-1.164l0.358-1.194l5.606-21.357l0.147-0.736h0.727h6.844h1.163L102.254,9.824z M102.907,7.22h-0.727h-6.841h-1.09H81.805h-1.092l0.292-1.118l1.384-5.357L82.614,0h0.719h33.908h1.17l-0.297,1.116l-1.454,5.431l-0.143,0.674h-0.729H102.907z"/>
  <path fill="#1F2C53" d="M120.006,6.027c0.368-0.965,0.732-1.789,1.17-2.53c0.507-0.746,1.015-1.336,1.604-1.78c0.214-0.153,0.432-0.304,0.721-0.452c0.224-0.15,0.441-0.301,0.73-0.372C125.615,0.301,127.358,0,129.545,0h21.609h0.075c1.452,0,2.687,0.148,3.707,0.446c0.144,0,0.295,0.074,0.438,0.152c0.871,0.296,1.454,0.743,1.891,1.263C157.773,2.528,158,3.421,158,4.539c0,1.042-0.154,2.231-0.518,3.72l-4.222,15.85c-0.073,0.451-0.215,0.819-0.284,1.193c-0.149,0.372-0.295,0.669-0.365,1.042c-0.729,1.788-1.604,3.123-2.627,3.943c-0.72,0.596-1.746,0.966-2.906,1.261C145.99,31.85,144.677,32,143.225,32h-21.69c-1.453,0-2.761-0.15-3.713-0.451c-1.09-0.295-1.887-0.743-2.324-1.407h-0.069v-0.077c-0.148-0.146-0.224-0.373-0.365-0.597c-0.077-0.221-0.145-0.519-0.219-0.738c-0.222-1.197-0.071-2.906,0.436-4.991l3.783-14.286l0.145-0.744h0.729h6.838h1.163l-0.291,1.115l-3.854,14.659h20.737l4.517-17.262h-20.669h-0.876h-6.691h-1.241L120.006,6.027z"/>
  <path fill="#1F2C53" d="M30.054,6.771H16.445h-0.942H7.708H6.617l0.298-1.189l1.231-4.836L8.367,0h0.725h25.251c1.242,0,2.259,0.148,3.131,0.374c0.146,0.072,0.292,0.145,0.438,0.145c0.727,0.303,1.309,0.67,1.744,1.199c0.146,0.144,0.293,0.37,0.366,0.587c0.141,0.153,0.218,0.378,0.293,0.597C40.675,3.946,40.675,5.36,40.24,7l-1.02,3.644c0,0.222-0.071,0.443-0.143,0.67c-0.074,0.222-0.222,0.445-0.294,0.67c-0.507,1.042-1.163,1.935-2.112,2.678c-0.507,0.371-1.016,0.667-1.672,0.965c0.438,0.373,0.873,0.744,1.165,1.191c0.438,0.669,0.654,1.339,0.727,2.159c0.073,0.743,0,1.64-0.289,2.531l-1.017,3.867c-0.078,0.299-0.149,0.596-0.22,0.893c-0.148,0.294-0.29,0.52-0.366,0.82c-0.729,1.416-1.75,2.529-3.131,3.276c-0.943,0.519-2.037,0.966-3.271,1.188C27.359,31.85,25.975,32,24.522,32H1.091H0l0.289-1.194L5.966,9.076L6.184,8.34h0.731h6.694h1.16l-0.292,1.109l-0.725,2.603h0.077l-0.298,1.12l-1.306,4.986l-0.222,0.747l-1.522,5.802h14.479c0.579,0,1.091-0.075,1.524-0.146h0.146c0.214-0.081,0.436-0.15,0.582-0.302c0.074,0,0.074-0.075,0.146-0.075c0.071-0.073,0.071-0.142,0.146-0.142c0.214-0.303,0.436-0.747,0.578-1.342l0.587-2.233v-0.072c0.072-0.076,0.072-0.224,0.072-0.301c0-0.075,0.071-0.152,0.071-0.297c0-0.299,0-0.523-0.071-0.597H28.67c0-0.075,0-0.075-0.074-0.075c-0.292-0.146-0.877-0.22-1.676-0.22H14.769h-1.16l0.287-1.117l1.314-4.986l0.214-0.75h0.728h12.151c0.51,0,1.023,0,1.384-0.067c0,0,0.074,0,0.143-0.077c0.224,0,0.438-0.077,0.587-0.149c0-0.073,0.072-0.073,0.072-0.073c0.072-0.078,0.072-0.078,0.146-0.15c0.22-0.149,0.361-0.521,0.436-0.892l0.728-2.831c0.069-0.145,0.069-0.22,0.069-0.22V7.37c0.074-0.149,0-0.302,0-0.302C31.799,7,31.578,6.923,31.363,6.845C31.071,6.771,30.636,6.771,30.054,6.771"/>
  <polygon fill="#D51729" points="40.257,16 75.479,10.94 73.147,20.091"/>
  <path fill="#FFFFFF" d="M74.714,11.503c-0.281,1.094-1.891,7.416-2.057,8.085c-0.979-0.119-19.765-2.97-24.958-3.613C52.814,15.24,73.143,11.727,74.714,11.503 M75.331,10.507L40.112,15.57l0.081,0.866l33.448,4.161l2.607-10.222L75.331,10.507z"/>
</svg>
