<svg style="fill-rule:evenodd;clip-rule:evenodd;stroke-linejoin:round;stroke-miterlimit:2;" xml:space="preserve" xmlns:xlink="http://www.w3.org/1999/xlink" xmlns="http://www.w3.org/2000/svg" version="1.1" viewBox="0 0 34 44" height="100%" width="100%"><path style="fill-rule:nonzero;" d="M34.235,0l-34.234,0l0,38.252c0,0 0,5.945 5.944,5.945l22.347,0c0,0 5.943,0 5.943,-5.945l0,-38.252Z"></path><path style="fill:#fff;fill-rule:nonzero;" d="M27.414,19.33c-0.287,-0.314 -0.511,-0.829 -0.556,-1.282l-0.001,-0.008l0.001,-0.007c0.009,-0.337 0.139,-0.746 0.265,-1.142l0.082,-0.258c0.001,-0.006 0.021,-0.06 0.021,-0.06l0.04,-0.12l0.032,-0.111c0.112,-0.378 0.17,-0.565 0.197,-0.679l0.003,-0l0.001,-0.01l0.01,-0.042c0.051,-0.207 0.077,-0.418 0.079,-0.631c0,-2.085 -2.393,-3.861 -2.871,-4.196l-0.014,-0.009l-1.024,-0.673l-0.819,0.832c-0.116,0.081 -0.789,0.498 -2.571,0.75c-0.602,0.071 -1.381,0.392 -1.77,1.087l-0.042,0.077l-0.09,-0.008c-0.87,-0.077 -1.745,-0.077 -2.615,-0l-0.09,0.008l-0.042,-0.077c-0.39,-0.695 -1.169,-1.016 -1.767,-1.086c-1.784,-0.253 -2.458,-0.67 -2.575,-0.751l-0.021,-0.017l-0.797,-0.815l-1.039,0.682c-0.478,0.334 -2.871,2.108 -2.871,4.196c0,0.18 0.023,0.368 0.069,0.576l0.003,0.011c0.001,0.015 0.004,0.03 0.008,0.045c0.003,0.015 0.006,0.029 0.008,0.044l0.002,0.007l0.002,-0.001c0.03,0.117 0.09,0.317 0.198,0.681l0.033,0.11l0.04,0.12l0.018,0.053l0.083,0.266c0.126,0.396 0.257,0.806 0.266,1.141l0,0.007l-0.001,0.008c-0.045,0.453 -0.268,0.968 -0.555,1.282l-0.309,0.336l0.144,0.955l5.773,4.535l0.062,0.049l-0.015,0.076c-0.065,0.334 -0.098,0.674 -0.099,1.015c0,1.294 0.48,2.39 1.427,3.257c0.883,0.807 1.124,1.316 1.19,1.531l0.002,-0l0.01,0.043c0.22,0.966 1.118,1.662 2.149,1.662c1.031,0 1.93,-0.696 2.149,-1.661l-0.001,0l0.01,-0.044l0.002,0.001c0.067,-0.213 0.308,-0.724 1.191,-1.532c0.947,-0.867 1.427,-1.962 1.427,-3.257c0,-0.334 -0.033,-0.675 -0.099,-1.015l-0.016,-0.076l0.063,-0.049l5.772,-4.535l0.145,-0.955l-0.307,-0.336Z"></path><path style="fill-rule:nonzero;" d="M26.657,19.972c-0.454,-0.496 -0.761,-1.237 -0.811,-1.888c-0.003,-0.567 0.21,-1.146 0.39,-1.727c0.018,-0.055 0.04,-0.117 0.06,-0.172l0.031,-0.107l0.188,-0.634c0.491,-1.804 -2.096,-3.668 -2.393,-3.876l-0.302,-0.197l-0.248,0.254c-0.007,0.007 -0.68,0.669 -3.138,1.019c-0.088,0.009 -0.866,0.1 -1.091,0.713l-0.226,0.568c-0.691,-0.154 -1.686,-0.172 -2.037,-0.173l-0.01,0c-0.352,0.001 -1.347,0.019 -2.038,0.173c-0.105,-0.267 -0.226,-0.568 -0.226,-0.568c-0.223,-0.613 -1.003,-0.704 -1.091,-0.713c-2.457,-0.35 -3.13,-1.012 -3.137,-1.019l-0.249,-0.254l-0.301,0.197c-0.297,0.208 -2.883,2.072 -2.392,3.876c0.072,0.247 0.145,0.494 0.22,0.741c0.018,0.055 0.041,0.117 0.058,0.172c0.18,0.581 0.394,1.16 0.389,1.727c-0.048,0.651 -0.354,1.392 -0.809,1.888l0.02,0.136l6.038,4.742l0,-0.001c0,0 -0.951,2.34 0.866,4c1.038,0.951 1.382,1.636 1.485,2.049l0,0.001c0.109,0.525 0.593,0.922 1.172,0.922c0.578,0 1.063,-0.396 1.172,-0.922l0.001,-0.001c0.104,-0.413 0.445,-1.098 1.484,-2.049c1.817,-1.66 0.866,-4 0.866,-4l-0.001,0.001l6.038,-4.742l0.022,-0.136Z"></path><path style="fill:#fff;fill-rule:nonzero;" d="M24.445,15.714l-0.492,0.069c-0.264,0.609 -0.652,0.701 -1.11,0.701l-11.525,0c-0.458,0 -0.847,-0.092 -1.11,-0.701l-0.492,-0.069l-1.016,4.22l0.496,0.072c1.253,-2.169 5.031,-2.321 6.809,-1.287l-0.716,8.546l-0.182,-0.389c0,0 -1.38,1.09 -0.409,1.519l4.766,-0c0.969,-0.429 -0.411,-1.519 -0.411,-1.519l-0.181,0.389l-0.717,-8.546c1.777,-1.034 5.558,-0.882 6.81,1.287l0.496,-0.072l-1.016,-4.22Z"></path><path style="fill:#fff;fill-rule:nonzero;" d="M15.515,20.89l-0.265,-1.507l-0.597,1.037l-0.566,-1.845c-1.12,-0.209 -2.529,0.154 -2.607,0.357l1.173,4.374l1.937,0l0.925,-2.416Zm4.056,2.416l1.938,0l1.173,-4.375c-0.078,-0.202 -1.488,-0.565 -2.605,-0.356l-0.567,1.844l-0.596,-1.035l-0.267,1.506l0.924,2.416Zm-5.864,-7.209c-0.388,-1.441 -0.626,-1.839 -0.08,-2.204l-0.02,-0.458l-4.52,0l0.061,0.458c1.501,0.301 1.297,0.928 1.78,2.21l2.779,-0.006Zm6.748,0c0.388,-1.441 0.627,-1.839 0.079,-2.204l0.021,-0.458l4.519,0l-0.06,0.458c-1.502,0.301 -1.299,0.928 -1.781,2.21l-2.778,-0.006Zm-1.187,-0.686l0,-0.576l-4.304,0l0,0.576c0.672,0 0.736,0.292 0.957,0.687l2.401,0c0.241,-0.395 0.343,-0.687 0.946,-0.687"></path><path style="fill-rule:nonzero;" d="M15.21,34.921l-2.058,0l0.412,0.356l-0.554,2.551l-1.19,0l0.672,-2.907l-2.058,0l0.405,0.356l-0.555,2.551l-1.182,0l0.667,-2.907l-2.058,0l0.375,0.356l-0.518,2.551c-0.069,0.301 0.211,0.551 0.595,0.551l6.303,0l0.744,-3.458Zm0.082,-0l0.623,0.551l1.357,-0l-0.675,2.907l1.578,-0l0.623,-2.907l1.753,-0l0.095,-0.551l-5.354,-0Zm10.639,0.001l-5.226,-0l0.453,0.387l-0.64,3.071l4.633,-0c0.408,-0 0.81,-0.251 0.883,-0.552l0.228,-0.896c0.065,-0.303 -0.249,-0.567 -0.668,-0.567c0.419,-0 0.846,-0.233 0.914,-0.539l0.081,-0.353l0,-0.001c0.067,-0.299 -0.212,-0.55 -0.658,-0.55m-1.47,2.906l-2.246,-0l0.192,-0.896l2.242,-0l-0.188,0.896Zm0.307,-1.464l-2.244,-0l0.191,-0.888l2.277,-0.004l-0.224,0.892Z"></path><path style="fill:#fff;fill-rule:nonzero;" d="M15.21,34.921l-2.06,0l0.413,0.356l-0.554,2.551l-1.19,0l0.672,-2.907l-2.057,0l0.404,0.356l-0.554,2.551l-1.182,0l0.668,-2.907l-2.059,0l0.375,0.356l-0.517,2.551c-0.07,0.301 0.211,0.551 0.594,0.551l6.304,0l0.743,-3.458Zm0.082,-0l0.624,0.551l1.356,-0l-0.676,2.907l1.579,-0l0.623,-2.907l1.751,-0l0.097,-0.551l-5.354,-0Zm10.64,0.001l-5.227,-0l0.453,0.387l-0.638,3.071l4.634,-0c0.407,-0 0.808,-0.251 0.881,-0.552l0.228,-0.896c0.065,-0.303 -0.248,-0.567 -0.667,-0.567c0.419,-0 0.845,-0.233 0.913,-0.539l0.083,-0.353l-0,-0.001c0.064,-0.299 -0.215,-0.55 -0.66,-0.55m-1.471,2.906l-2.246,-0l0.193,-0.896l2.241,-0l-0.188,0.896Zm0.307,-1.464l-2.243,-0l0.19,-0.888l2.277,-0.004l-0.224,0.892Zm3.034,1.582c-0.005,0.242 -0.207,0.437 -0.449,0.434c-0.242,0.003 -0.445,-0.192 -0.45,-0.434c-0,-0.241 0.209,-0.431 0.45,-0.431c0.241,-0.004 0.443,0.19 0.449,0.431m-0.846,-0c0.004,0.214 0.182,0.386 0.396,0.383c0.218,-0 0.395,-0.17 0.395,-0.383c-0.005,-0.212 -0.183,-0.382 -0.395,-0.378c-0.212,-0.003 -0.39,0.166 -0.396,0.378m0.233,-0.234l0.17,-0c0.036,-0 0.165,-0 0.165,0.116c-0,0.014 -0,0.087 -0.092,0.111c0.05,0.013 0.066,0.032 0.073,0.09c0.009,0.056 0.013,0.1 0.029,0.145l-0.069,-0c-0.013,-0.039 -0.02,-0.079 -0.023,-0.12c-0.007,-0.07 -0.026,-0.089 -0.104,-0.089l-0.083,-0l-0,0.209l-0.065,-0l-0,-0.462l-0.001,-0Zm0.066,0.198l0.104,-0c0.033,-0 0.095,-0 0.095,-0.071c-0,-0.073 -0.059,-0.073 -0.095,-0.073l-0.104,-0l-0,0.144Z"></path></svg>