<svg xmlns="http://www.w3.org/2000/svg" version="1.1" xmlns:xlink="http://www.w3.org/1999/xlink" xmlns:svgjs="http://svgjs.dev/svgjs" width="1000" height="1000"><g clip-path="url(#SvgjsClipPath1234)"><rect width="1000" height="1000" fill="#ffffff"></rect><g transform="matrix(1,0,0,1,0,0)"><svg xmlns="http://www.w3.org/2000/svg" version="1.1" xmlns:xlink="http://www.w3.org/1999/xlink" xmlns:svgjs="http://svgjs.dev/svgjs" width="1000" height="1000"><svg xmlns="http://www.w3.org/2000/svg" version="1.1" xmlns:xlink="http://www.w3.org/1999/xlink" xmlns:svgjs="http://svgjs.dev/svgjs" width="1000" height="1000"><g clip-path="url(#SvgjsClipPath1170)"><rect width="1000" height="1000" fill="#ffffff"></rect><g transform="matrix(3.90625,0,0,3.90625,0,0)"><svg xmlns="http://www.w3.org/2000/svg" version="1.1" xmlns:xlink="http://www.w3.org/1999/xlink" xmlns:svgjs="http://svgjs.dev/svgjs" width="256" height="256"><svg version="1.1" xmlns="http://www.w3.org/2000/svg" width="256" height="256">
<path d="M0 0 C3.64588169 -0.02682987 7.29156846 -0.04675569 10.9375 -0.0625 C12.49887695 -0.07506836 12.49887695 -0.07506836 14.09179688 -0.08789062 C15.57583008 -0.09272461 15.57583008 -0.09272461 17.08984375 -0.09765625 C18.46450806 -0.10551147 18.46450806 -0.10551147 19.86694336 -0.11352539 C22 0 22 0 23 1 C23.23481693 3.18292774 23.41363323 5.37203174 23.5625 7.5625 C23.68818359 9.35880859 23.68818359 9.35880859 23.81640625 11.19140625 C23.87699219 12.11824219 23.93757813 13.04507813 24 14 C24.80179688 12.989375 25.60359375 11.97875 26.4296875 10.9375 C35.89757582 -0.16088275 35.89757582 -0.16088275 42.90234375 -0.96484375 C47.34316749 -1.08768811 51.62065797 -0.72908561 56 0 C57.66561399 1.66561399 57.17115945 3.65962705 57.1875 5.9375 C57.20167969 6.83339844 57.21585938 7.72929688 57.23046875 8.65234375 C57 11 57 11 55 13 C52.43083343 13.30599063 49.95241616 13.51087087 47.375 13.625 C46.31539062 13.68300781 46.31539062 13.68300781 45.234375 13.7421875 C43.49001476 13.83647724 41.74504309 13.91932891 40 14 C48.31304908 24.38337769 48.31304908 24.38337769 59.875 29.375 C61.25151521 29.26796781 62.62708288 29.14611154 64 29 C64.02888514 32.14581423 64.04675923 35.29159469 64.0625 38.4375 C64.07087891 39.33533203 64.07925781 40.23316406 64.08789062 41.15820312 C64.09111328 42.01220703 64.09433594 42.86621094 64.09765625 43.74609375 C64.10289307 44.53685303 64.10812988 45.3276123 64.11352539 46.14233398 C64 48 64 48 63 49 C47.14741349 50.37170857 47.14741349 50.37170857 41.3828125 47.859375 C39.3372763 46.05087519 37.72089033 44.12207949 36 42 C34.41914468 40.38036998 32.80496833 38.79858438 31.18725586 37.21582031 C28.76199469 34.83933809 26.38301946 32.41876475 24 30 C23.90912109 31.93166016 23.90912109 31.93166016 23.81640625 33.90234375 C23.73201753 35.58074159 23.6473687 37.25912636 23.5625 38.9375 C23.52318359 39.78763672 23.48386719 40.63777344 23.44335938 41.51367188 C23.40146484 42.32255859 23.35957031 43.13144531 23.31640625 43.96484375 C23.27974854 44.7137085 23.24309082 45.46257324 23.20532227 46.23413086 C23 48 23 48 22 49 C20.45044441 49.09899523 18.89646327 49.13079524 17.34375 49.1328125 C15.93416016 49.13474609 15.93416016 49.13474609 14.49609375 49.13671875 C13.50738281 49.13285156 12.51867187 49.12898438 11.5 49.125 C10.51128906 49.12886719 9.52257812 49.13273437 8.50390625 49.13671875 C7.56417969 49.13542969 6.62445313 49.13414062 5.65625 49.1328125 C4.78806641 49.13168457 3.91988281 49.13055664 3.02539062 49.12939453 C1 49 1 49 0 48 C-0.08651611 46.58429877 -0.10704904 45.164405 -0.09765625 43.74609375 C-0.09443359 42.89208984 -0.09121094 42.03808594 -0.08789062 41.15820312 C-0.07951172 40.26037109 -0.07113281 39.36253906 -0.0625 38.4375 C-0.05798828 37.53580078 -0.05347656 36.63410156 -0.04882812 35.70507812 C-0.03700225 33.46998686 -0.0205222 31.23502563 0 29 C1.65 29 3.3 29 5 29 C5 23.72 5 18.44 5 13 C3.35 12.67 1.7 12.34 0 12 C0 8.04 0 4.08 0 0 Z " fill="#0000FE" transform="translate(96,104)"></path>
<path d="M0 0 C16.17 0 32.34 0 49 0 C49 3.96 49 7.92 49 12 C46.02958551 13.48520725 43.30235553 13.1705822 40 13.1875 C38.1128125 13.20876953 38.1128125 13.20876953 36.1875 13.23046875 C33 13 33 13 31 11 C31 10.01 31 9.02 31 8 C26.71 8 22.42 8 18 8 C18 10.64 18 13.28 18 16 C19.08007324 15.99476318 20.16014648 15.98952637 21.27294922 15.98413086 C25.27228978 15.96605892 29.27162672 15.95455993 33.27099609 15.94506836 C35.00342414 15.94003318 36.73584792 15.93320468 38.46826172 15.92456055 C40.95541433 15.91245935 43.44251087 15.90676362 45.9296875 15.90234375 C47.09538773 15.89460182 47.09538773 15.89460182 48.28463745 15.88670349 C53.77225659 15.88612829 53.77225659 15.88612829 56 17 C56.02465504 21.39656173 56.04283842 25.7930872 56.05493164 30.18969727 C56.05997121 31.68644918 56.06680287 33.18319616 56.07543945 34.67993164 C56.08752159 36.82699807 56.09323191 38.97399962 56.09765625 41.12109375 C56.10289307 42.4145874 56.10812988 43.70808105 56.11352539 45.04077148 C56 48 56 48 55 49 C53.10301151 49.09915795 51.20231213 49.12799314 49.30273438 49.12939453 C48.08477173 49.13254669 46.86680908 49.13569885 45.61193848 49.13894653 C44.27254195 49.13715675 42.93314576 49.1351058 41.59375 49.1328125 C40.2299396 49.1334856 38.86612932 49.13445567 37.50231934 49.13571167 C34.64069479 49.13718838 31.7791014 49.13503497 28.91748047 49.13037109 C25.24181386 49.12467381 21.56622026 49.12795296 17.89055634 49.13394356 C15.07337896 49.13754991 12.25621902 49.13641025 9.43904114 49.13381577 C8.08339937 49.1331467 6.72775604 49.13397421 5.37211609 49.13629532 C3.48049956 49.13882301 1.58887751 49.13429014 -0.30273438 49.12939453 C-1.92036682 49.12820114 -1.92036682 49.12820114 -3.57067871 49.12698364 C-6 49 -6 49 -7 48 C-7.08651611 46.58429877 -7.10704904 45.164405 -7.09765625 43.74609375 C-7.09515869 42.9770874 -7.09266113 42.20808105 -7.09008789 41.41577148 C-7.07643188 39.9415271 -7.07643188 39.9415271 -7.0625 38.4375 C-7.041875 35.323125 -7.02125 32.20875 -7 29 C0.26 29 7.52 29 15 29 C15 32.96 15 36.92 15 41 C21.27 41 27.54 41 34 41 C34 35.72 34 30.44 34 25 C30.44412109 25.01740234 30.44412109 25.01740234 26.81640625 25.03515625 C24.52954238 25.04294696 22.24267996 25.04902364 19.95581055 25.05493164 C18.36205386 25.05997157 16.76830181 25.0668035 15.17456055 25.07543945 C12.88849747 25.08751999 10.60249533 25.09323155 8.31640625 25.09765625 C7.59973282 25.10281754 6.88305939 25.10797882 6.14466858 25.11329651 C4.42936328 25.11349263 2.71418734 25.06192007 1 25 C0.67 24.67 0.34 24.34 0 24 C0 16.08 0 8.16 0 0 Z " fill="#0000FE" transform="translate(31,104)"></path>
<path d="M0 0 C20.79 0 41.58 0 63 0 C63 3.96 63 7.92 63 12 C61.44926853 13.55073147 59.96937747 13.12969128 57.81640625 13.1328125 C56.97142578 13.13410156 56.12644531 13.13539062 55.25585938 13.13671875 C54.36705078 13.13285156 53.47824219 13.12898438 52.5625 13.125 C51.67755859 13.12886719 50.79261719 13.13273437 49.88085938 13.13671875 C49.03458984 13.13542969 48.18832031 13.13414063 47.31640625 13.1328125 C46.53724854 13.13168457 45.75809082 13.13055664 44.95532227 13.12939453 C43 13 43 13 41 12 C41 10.68 41 9.36 41 8 C34.73 8 28.46 8 22 8 C22 10.64 22 13.28 22 16 C24.31 16 26.62 16 29 16 C29 15.34 29 14.68 29 14 C34.61 14 40.22 14 46 14 C47.18306728 16.36613456 47.13354608 17.86780736 47.125 20.5 C47.12886719 21.69109375 47.12886719 21.69109375 47.1328125 22.90625 C47 25 47 25 46 27 C40.39 27 34.78 27 29 27 C29 26.34 29 25.68 29 25 C26.69 25 24.38 25 22 25 C22 26.32 22 27.64 22 29 C23.65 29 25.3 29 27 29 C27.02888514 32.14581423 27.04675923 35.29159469 27.0625 38.4375 C27.07087891 39.33533203 27.07925781 40.23316406 27.08789062 41.15820312 C27.09272461 42.43920898 27.09272461 42.43920898 27.09765625 43.74609375 C27.10289307 44.53685303 27.10812988 45.3276123 27.11352539 46.14233398 C27 48 27 48 26 49 C24.15840977 49.09959621 22.31303033 49.13080411 20.46875 49.1328125 C19.34855469 49.13410156 18.22835937 49.13539063 17.07421875 49.13671875 C15.89472656 49.13285156 14.71523437 49.12898438 13.5 49.125 C11.73076172 49.13080078 11.73076172 49.13080078 9.92578125 49.13671875 C8.24548828 49.13478516 8.24548828 49.13478516 6.53125 49.1328125 C5.49548828 49.13168457 4.45972656 49.13055664 3.39257812 49.12939453 C1 49 1 49 0 48 C-0.08651611 46.58429877 -0.10704904 45.164405 -0.09765625 43.74609375 C-0.09443359 42.89208984 -0.09121094 42.03808594 -0.08789062 41.15820312 C-0.07951172 40.26037109 -0.07113281 39.36253906 -0.0625 38.4375 C-0.05798828 37.53580078 -0.05347656 36.63410156 -0.04882812 35.70507812 C-0.03700225 33.46998686 -0.0205222 31.23502563 0 29 C1.32 28.67 2.64 28.34 4 28 C4.33 23.05 4.66 18.1 5 13 C3.35 12.67 1.7 12.34 0 12 C0 8.04 0 4.08 0 0 Z " fill="#0000FE" transform="translate(169,104)"></path>
</svg></svg></g></g><defs><clipPath id="SvgjsClipPath1170"><rect width="1000" height="1000" x="0" y="0" rx="100" ry="100"></rect></clipPath><clipPath id="SvgjsClipPath1234"><rect width="1000" height="1000" x="0" y="0" rx="200" ry="200"></rect></clipPath></defs></svg></svg></g></g></svg>