<svg xmlns="http://www.w3.org/2000/svg" fill="none" viewBox="0 0 199 18" height="18" width="199">
<path fill="black" d="M172.498 2.28708L159.668 16.959H167.83L170.268 14.5199L183.685 14.4876L185.955 16.957H194.267L181.545 2.29326L172.498 2.28777V2.28708ZM172.654 10.9098C174.11 9.18131 175.457 7.57899 176.913 5.84703C178.377 7.52481 179.787 9.1429 181.326 10.9098H172.654Z"></path>
<path fill="black" d="M91.0313 3.02651C89.2891 2.60535 87.4597 2.3591 85.666 2.33784C78.8883 2.25964 64.2894 2.3056 64.2894 2.3056V16.9419C64.2894 16.9419 78.7564 17.0015 85.7045 16.9823C87.8987 16.9768 90.0846 16.7958 92.1332 15.9123C93.6645 15.2504 94.8062 14.1858 94.9553 12.4436C95.0742 11.0525 95.0199 9.64774 95.0254 8.2512C95.0309 5.2928 93.9406 3.73438 91.032 3.02651H91.0313ZM87.8224 10.4633C87.8389 11.936 87.2948 12.7193 85.9827 13.0376C85.1631 13.2351 84.2941 13.3106 83.4478 13.3161C79.4839 13.3456 71.4483 13.3298 71.4483 13.3298V5.96844L83.77 6.02537C84.2735 6.02811 85.6798 6.14678 86.1593 6.31209C88.2806 7.05494 87.8046 8.88087 87.8231 10.464L87.8224 10.4633Z"></path>
<path fill="black" d="M53.33 12.8414L39.4256 2.31109L28.9932 2.31658V16.9316H36.0841V6.3848L50.0779 16.9556L60.489 16.9398V2.29737H53.33V12.8414Z"></path>
<path fill="black" d="M157.983 9.38091C159.566 6.79018 158.176 3.5485 155.216 2.8516C153.6 2.47365 151.906 2.30834 150.245 2.29257C150.245 2.29257 130.137 2.3008 130.137 2.29257V16.9563H137.415V13.2687L149.52 13.3119C150.756 13.4148 151.122 13.8579 151.138 15.0871V16.9563H158.356C158.37 15.7003 158.31 14.4842 158.126 13.3229C157.891 11.8667 156.514 11.6102 155.615 11.2809C156.475 10.8543 157.485 10.2006 157.983 9.3816L157.983 9.38091ZM149.869 9.41658C149.61 9.48929 149.334 9.54348 149.066 9.54348C145.346 9.52427 141.622 9.49752 137.902 9.46803C137.77 9.46803 137.634 9.43305 137.41 9.40081V6.07544C137.756 6.05144 138.081 6.00754 138.406 6.00754C141.717 6.00205 145.032 6.00205 148.346 6.00754C148.787 6.00754 149.234 6.03429 149.672 6.09122C150.503 6.19891 151.076 6.60978 151.163 7.50148C151.261 8.46864 150.8 9.14907 149.869 9.41658Z"></path>
<path fill="black" d="M7.19677 11.2027H24.3856V8.04474H7.21051V5.87516H25.4326V2.31246H0V16.935H25.7225V13.3531H7.19677V11.2027Z"></path>
<path fill="black" d="M120.088 10.6629C120.053 12.5835 119.388 13.2372 117.45 13.2591C114.271 13.2941 111.09 13.2941 107.91 13.2564C105.93 13.2351 105.313 12.5622 105.299 10.5497L105.242 2.31864H98.1504C98.1504 2.31864 98.1126 9.28557 98.1669 12.7303C98.1937 14.4616 99.0978 15.7237 100.759 16.2937C101.782 16.6449 102.864 17.0125 103.927 17.0338C109.125 17.1312 114.327 17.1826 119.528 17.1037C121.205 17.077 122.915 16.7361 124.544 16.3012C126.13 15.8773 127.166 14.5885 127.242 12.9052L127.277 2.31246H120.086L120.088 10.6629Z"></path>
<path fill="black" d="M198.988 4.2694C198.769 1.67043 196.556 -0.09102 194.188 0.00363756C191.659 0.103783 189.584 2.25964 189.759 4.9471C189.924 7.46513 192.152 9.38297 194.705 9.21286C197.235 9.04824 199.169 6.81144 198.988 4.2694ZM194.565 8.47549C192.441 8.57564 190.601 6.92187 190.501 4.82569C190.398 2.67806 192.046 0.854184 194.184 0.751981C196.299 0.649093 198.136 2.29188 198.245 4.38258C198.358 6.53296 196.703 8.37535 194.566 8.47549H194.565Z"></path>
<path fill="black" d="M195.368 6.86632C195.53 6.53707 195.728 6.22086 195.917 5.88064C196.182 6.14815 196.412 6.37794 196.677 6.64819C196.645 5.2297 196.616 3.86059 196.585 2.48257C195.192 2.42838 193.823 2.37488 192.413 2.32069C192.676 2.5882 192.906 2.82348 193.152 3.07727C192.895 3.23092 192.665 3.39622 192.413 3.51763C192.232 3.60406 192.024 3.64727 191.82 3.67471C191.71 3.68843 191.588 3.62052 191.425 3.58005C192.778 4.94984 194.098 6.2922 195.419 7.63249C195.283 7.38145 195.243 7.11942 195.367 6.86769L195.368 6.86632Z"></path>
<path fill="black" d="M195.596 6.69346C195.479 6.92873 195.415 7.16881 195.509 7.42809C195.607 7.70109 195.799 7.81426 196.067 7.7148C196.291 7.63112 196.494 7.49599 196.741 7.3691C196.397 7.01516 196.094 6.70444 195.775 6.37794C195.71 6.49111 195.645 6.58851 195.596 6.69415V6.69346Z"></path>
<path fill="black" d="M192.624 3.21102C192.307 2.89207 192.002 2.58409 191.664 2.24387C191.537 2.45171 191.407 2.62182 191.323 2.81387C191.164 3.18427 191.355 3.47579 191.764 3.50529C192.086 3.52655 192.354 3.39211 192.624 3.21102Z"></path>
</svg>
