<svg width="120" height="30" viewBox="0 0 120 30" fill="none" xmlns="http://www.w3.org/2000/svg">
<g clip-path="url(#clip0_40003_27976)">
<path d="M110.043 24.3879C109.135 24.3879 108.59 23.6504 108.838 22.7368L114.474 1.94849H106.873L100.219 26.7766C99.8116 28.2957 100.714 29.5286 102.233 29.5286H118.635L120 24.3934H110.049L110.043 24.3879Z" fill="#E4002B"/>
<path d="M60.8773 8.63012C61.1195 7.71647 62.0606 6.97895 62.9688 6.97895H72.8098L74.1692 1.94287H57.8502C56.3311 1.94287 54.7735 3.17575 54.3662 4.68932L47.6294 29.5175H55.2578L58.3015 18.2124H66.717L68.0709 13.1433H59.6499L60.8773 8.62462V8.63012Z" fill="#E4002B"/>
<path d="M23.6816 1.95386H5.12792L3.76846 7.02846H14.3305L0.124868 28.158C-0.227382 28.7634 0.207427 29.5229 0.906423 29.5229H19.5372L20.9021 24.3823H10.4777L24.4632 3.32433C24.8154 2.7189 24.3806 1.95936 23.6816 1.95936" fill="#E4002B"/>
<path d="M33.3907 23.1825L34.7116 18.2289H43.0665L44.4425 13.1213H36.0491L37.2544 8.64114C37.4966 7.72749 38.4322 6.98996 39.3459 6.98996H49.2089L50.5684 1.94288H46.1432L45.802 1.94838L46.2808 0H37.8984L37.414 1.95939H34.2548C32.7357 1.95939 31.1781 3.19227 30.7708 4.71135L24.8541 26.7655C24.4468 28.2846 25.3495 29.5175 26.8685 29.5175H43.1766L44.5526 24.3933H34.7226C33.9631 24.3933 33.2256 24.0246 33.3962 23.1825" fill="#E4002B"/>
<path d="M99.2996 1.94837H81.3679C79.8488 1.94837 78.2912 3.18125 77.8839 4.69483L71.2021 29.523H78.3517L80.6744 20.8378H88.8312L86.5085 29.523H93.6966L100.621 3.6711C100.852 2.80148 100.197 1.94287 99.2941 1.94287M83.9822 8.63012C84.2244 7.71647 85.1656 6.97895 86.0737 6.97895H92.5793L90.2071 15.6971H82.0504L83.9822 8.63012Z" fill="#E4002B"/>
</g>
<defs>
<clipPath id="clip0_40003_27976">
<rect width="120" height="30" fill="white"/>
</clipPath>
</defs>
</svg>
