<?xml version="1.0" encoding="utf-8"?>
<!-- Generator: Adobe Illustrator 22.0.1, SVG Export Plug-In . SVG Version: 6.00 Build 0)  -->
<svg version="1.1" id="Calque_1" xmlns="http://www.w3.org/2000/svg" xmlns:xlink="http://www.w3.org/1999/xlink" x="0px" y="0px"
	 viewBox="0 0 628.1 80.6" style="enable-background:new 0 0 628.1 80.6;" xml:space="preserve">
<style type="text/css">
	.st0{fill:#fff;}
	.st1{fill:#fff;}
</style>
<g>
	<g>
		<path class="st0" d="M617.8,21.4c1,0,2,0.2,2.9,0.6c0.9,0.4,1.7,0.9,2.5,1.7c0.7,0.7,1.2,1.5,1.6,2.4c0.4,0.9,0.5,1.8,0.5,2.8
			c0,1-0.2,2-0.6,2.9c-0.4,0.9-0.9,1.7-1.6,2.4c-0.7,0.7-1.6,1.2-2.5,1.6c-0.9,0.4-1.9,0.6-2.9,0.6c-1,0-2-0.2-2.9-0.6
			c-0.9-0.4-1.7-0.9-2.5-1.7c-0.7-0.7-1.3-1.5-1.6-2.4c-0.4-0.9-0.6-1.8-0.6-2.8c0-1,0.2-1.9,0.6-2.8c0.4-0.9,1-1.7,1.7-2.5
			c0.7-0.7,1.5-1.2,2.4-1.6C615.8,21.6,616.8,21.4,617.8,21.4z M617.8,22.5c-0.9,0-1.7,0.2-2.4,0.5c-0.8,0.3-1.4,0.8-2,1.3
			c-0.6,0.6-1.1,1.3-1.4,2.1c-0.3,0.8-0.5,1.6-0.5,2.4s0.2,1.6,0.5,2.4c0.3,0.8,0.8,1.4,1.4,2c0.6,0.6,1.3,1.1,2.1,1.4
			c0.8,0.3,1.6,0.5,2.4,0.5c0.9,0,1.7-0.2,2.5-0.5c0.8-0.3,1.5-0.8,2.1-1.4c0.6-0.6,1.1-1.2,1.4-2c0.3-0.7,0.5-1.5,0.5-2.4
			c0-0.9-0.2-1.7-0.5-2.5c-0.3-0.8-0.8-1.4-1.4-2.1c-0.6-0.6-1.3-1.1-2.1-1.4C619.5,22.7,618.7,22.5,617.8,22.5z M614.8,24.5h3.3
			c1.2,0,2.1,0.2,2.7,0.6c0.6,0.4,0.9,0.9,0.9,1.7c0,0.6-0.2,1.1-0.5,1.5c-0.3,0.4-0.8,0.7-1.4,0.8l1.9,3.8h-2l-1.7-3.5h-1.3v3.5
			h-1.8V24.5z M616.6,25.6v2.6h1.2c0.7,0,1.2-0.1,1.5-0.3c0.3-0.2,0.5-0.5,0.5-1c0-0.5-0.2-0.8-0.5-1c-0.3-0.2-0.8-0.3-1.6-0.3
			H616.6z"/>
	</g>
	<path class="st0" d="M191.2,35.3c0,0.3-0.3,0.6-0.6,0.6h-23.1c-0.3,0-0.6-0.3-0.6-0.6V21.8c0-0.3-0.3-0.6-0.6-0.6h-6.3
		c-0.3,0-0.6,0.3-0.6,0.6v38.3c0,0.3,0.3,0.6,0.6,0.6h6.3c0.3,0,0.6-0.3,0.6-0.6v-17c0-0.3,0.3-0.6,0.6-0.6h23.1
		c0.3,0,0.6,0.3,0.6,0.6v17c0,0.3,0.3,0.6,0.6,0.6h6.3c0.3,0,0.6-0.3,0.6-0.6V21.8c0-0.3-0.3-0.6-0.6-0.6h-6.3
		c-0.3,0-0.6,0.3-0.6,0.6V35.3z"/>
	<path class="st0" d="M241.2,45.7c0.1,3.4-1.2,5.5-3.7,7c-2.3,1.4-5,2.3-10.3,2.3c-5.4,0-8-0.9-10.4-2.3c-2.5-1.5-3.9-3.9-3.8-7
		V21.8c0-0.3-0.3-0.6-0.6-0.6h-6.3c-0.3,0-0.6,0.3-0.6,0.6v25.4c-0.2,4.4,2.1,8.1,6.2,10.7c4.4,2.8,9,4,15.5,4c6.4,0,11-1.2,15.4-4
		c4.1-2.6,6.3-6,6.2-10.7V21.8c0-0.3-0.3-0.6-0.6-0.6h-6.3c-0.3,0-0.6,0.3-0.6,0.6V45.7z"/>
	<path class="st0" d="M295.8,21.8c0-0.3-0.3-0.6-0.6-0.6h-39.5c-0.3,0-0.6,0.3-0.6,0.6v5.6c0,0.3,0.3,0.6,0.6,0.6h15.5
		c0.3,0,0.6,0.3,0.6,0.6v31.6c0,0.3,0.3,0.6,0.6,0.6h6.3c0.3,0,0.6-0.3,0.6-0.6V28.6c0-0.3,0.3-0.6,0.6-0.6h15.5
		c0.3,0,0.6-0.3,0.6-0.6V21.8z"/>
	<path class="st0" d="M309.1,30.9c3.3-2.6,7.6-4,12.9-4c7,0,12.3,1.9,16.4,6.2c0.2,0.2,0.3,0,0.6-0.1l5.8-2c0.3-0.1,0.4-0.3,0.3-0.5
		c-5.3-7-13.2-10.5-23.1-10.5c-6.9,0-12.7,1.8-17.4,5.3c-5.4,4-8.1,9.3-8.1,15.6c0,6.4,2.7,11.7,8,15.7c4.6,3.4,10.5,5.2,17.5,5.2
		c5,0,9.3-0.8,12.9-2.2c6-2.3,9.8-7.2,9.9-7.4c0.1-0.1,0-0.4-0.3-0.5l-5.4-3c-0.3-0.1-0.5-0.3-0.6-0.1c-3.2,3.5-9.2,6.5-16.1,6.3
		c-5.6-0.2-10.1-1.3-13.3-3.9c-3.2-2.6-4.9-6-4.9-10.2C304.2,36.9,305.8,33.5,309.1,30.9z"/>
	<path class="st0" d="M382.2,35.3c0,0.3-0.3,0.6-0.6,0.6h-23.1c-0.3,0-0.6-0.3-0.6-0.6V21.8c0-0.3-0.3-0.6-0.6-0.6h-6.3
		c-0.3,0-0.6,0.3-0.6,0.6v38.3c0,0.3,0.3,0.6,0.6,0.6h6.3c0.3,0,0.6-0.3,0.6-0.6v-17c0-0.3,0.3-0.6,0.6-0.6h23.1
		c0.3,0,0.6,0.3,0.6,0.6v17c0,0.3,0.3,0.6,0.6,0.6h6.3c0.3,0,0.6-0.3,0.6-0.6V21.8c0-0.3-0.3-0.6-0.6-0.6h-6.3
		c-0.3,0-0.6,0.3-0.6,0.6V35.3z"/>
	<path class="st0" d="M397.8,60.2c0,0.3,0.3,0.6,0.6,0.6h6.3c0.3,0,0.6-0.3,0.6-0.6V21.8c0-0.3-0.3-0.6-0.6-0.6h-6.3
		c-0.3,0-0.6,0.3-0.6,0.6V60.2z"/>
	<path class="st0" d="M447.3,50.5c0,0.3-0.2,0.4-0.4,0.1l-24.3-28.8c-0.2-0.2-0.4-0.5-0.4-0.5c0,0-0.3-0.1-0.6-0.1H414
		c-0.3,0-0.6,0.3-0.6,0.6v38.3c0,0.3,0.3,0.6,0.6,0.6h6.3c0.3,0,0.6-0.3,0.6-0.6V30.5c0-0.3,0.2-0.4,0.4-0.1l25.6,29.9
		c0.2,0.2,0.6,0.4,0.9,0.4h6.3c0.3,0,0.6-0.3,0.6-0.6V21.8c0-0.3-0.3-0.6-0.6-0.6h-6.3c-0.3,0-0.6,0.3-0.6,0.6L447.3,50.5z"/>
	<path class="st0" d="M549.8,25.3c-4.7-3.5-9.5-5.3-16.4-5.3c-6.8,0-11.7,1.8-16.5,5.3c-5.4,4.1-8.2,9.3-8.2,15.6
		c0,6.4,2.7,11.7,8.1,15.7c4.7,3.5,9.6,5.3,16.6,5.3c6.9,0,11.8-1.7,16.5-5.2c5.4-4,8.1-9.3,8.1-15.7
		C557.9,34.6,555.2,29.4,549.8,25.3z M545.4,51.1c-3.2,2.6-6.6,3.9-12,3.9c-5.4,0-8.8-1.3-12.1-3.9c-3.2-2.6-4.8-6-4.8-10.2
		c0-4,1.7-7.4,4.9-10.1c3.3-2.7,6.7-4,12-4c4.8,0,7.9,1.2,11.2,3.5c3.7,2.7,5.6,6.2,5.6,10.5C550.2,45.1,548.6,48.5,545.4,51.1z"/>
	<path class="st0" d="M597.4,21.3c-0.3,0-0.6,0.3-0.6,0.6l0.1,28.7c0,0.3-0.2,0.4-0.4,0.1l-24.3-28.8c-0.2-0.2-0.4-0.5-0.4-0.5
		c0,0-0.3-0.1-0.6-0.1h-7.6c-0.3,0-0.6,0.3-0.6,0.6v38.3c0,0.3,0.3,0.6,0.6,0.6h6.3c0.3,0,0.6-0.3,0.6-0.6V30.5
		c0-0.3,0.2-0.4,0.4-0.1l25.6,29.9c0.2,0.2,0.6,0.4,0.9,0.4h6.3c0.3,0,0.6-0.3,0.6-0.6V21.8c0-0.3-0.3-0.6-0.6-0.6H597.4z"/>
	<path class="st0" d="M501.2,40.5c-2.4-1.8-6.1-3-11.1-3.7c-1.7-0.2-5.2-0.5-10.7-0.9c-3.6-0.2-6.2-0.6-7.8-1.1
		c-2.1-0.7-3.1-1.8-3.1-3.3c0-1.4,0.9-2.5,2.9-3.4c2-0.9,5.1-1.3,9-1.3c6.1,0,14.3,1,21.3,4.2c0.2,0.1,0.4-0.1,0.4-0.4v-6.5
		c0-0.3,0-0.6-0.1-0.6c-4.5-2-14.3-3.3-21-3.3c-6.3,0-11.3,1.1-14.8,3.2c-3.6,2.2-5.4,5.2-5.4,9c0,3.7,1.6,6.4,4.8,7.9
		c2.6,1.3,7.3,2.2,13.7,2.6c7.2,0.5,11.7,0.9,13.3,1.3c2.9,0.8,4.4,2.2,4.4,4.4c0,1.9-1.1,3.4-3.3,4.5c-2.4,1.2-6,1.9-10.4,1.8
		c-6.5-0.1-14.8-1.6-21.7-5.8c-0.2-0.1-0.4,0-0.4,0.3v6c0,0.3,0,0.6,0.1,0.6c0.1,0,7.2,5.4,21.9,5.4c6.9,0,12.3-1.1,16.1-3.4
		c3.8-2.3,5.8-5.6,5.8-9.9C504.9,45,503.7,42.4,501.2,40.5z"/>
	<rect x="130.8" y="5" class="st0" width="2" height="72"/>
	<g>
		<g>
			<g>
				<path class="st1" d="M6.9,26.1c-0.7,0-1,0-1,0.2c0,0.3,0.1,0.4,0.9,1.2l8.5,8.3c1.4,1.4,3.9,1.2,5.2-0.3l6.7-7.6
					c0.9-1.2,0.9-1.3,0.8-1.6c-0.1-0.3-0.4-0.3-1.1-0.3L6.9,26.1z"/>
			</g>
		</g>
		<g>
			<path class="st1" d="M53.2,74.9c3.5,2.9,9.2,2.5,12.7-0.9l34.6-35.9c2.3-2.7,3.2-12.1-8.8-12.1c-0.2,0-28,0-28,0
				c-2.2,0-5.4,1.5-7.1,3.2l-7,7.3c-0.8,0.8-1,1.1-0.8,1.4c0.2,0.3,0.3,0.2,1,0.2l21.2,0c7-0.1,7.4,0.4,7.9,1.5
				c0.3,0.7,0.1,2.2-1.7,4l-13.7,14c-1.2,1.2-2.8,1.9-4.5,1.9c-1.6,0-3.1-0.6-4.2-1.6L42.3,46.3c-1.2-1.1-1.8-2.6-1.9-4.2
				c-0.1-1.6,0.5-3.2,1.7-4.4l14.5-15.6c2.1-2.3,5.9-4,8.7-4l31.5,0c2.2,0,5.5-1.4,7.3-3l9.3-8.7c0.6-0.7,1-1.1,0.9-1.2
				c-0.1-0.2-0.3-0.1-1-0.1L57.7,5c-2.1,0-5.3,1.5-7,3.3L23,39.8c-1.4,1.6-1.4,4,0.2,5.4L53.2,74.9z"/>
		</g>
	</g>
</g>
</svg>
